<svg id="Layer_1" data-name="Layer 1" xmlns="http://www.w3.org/2000/svg" viewBox="0 0 294.53 262.79"><defs><style>.cls-1{fill:#698573;stroke:#fbf9fb;stroke-miterlimit:10;}</style></defs><path class="cls-1" d="M16.25,162.92c2.9,13.45,7.39,26.69,14.74,38.31s17.67,21.59,29.06,29.57c40.27,28.24,96.32,32.1,140.09,9.64,26.52-13.61,47.74-35.46,68.3-57.05,5.91-6.21,11.94-12.62,15.22-20.54,4.2-10.15,3.41-21.78.23-32.29-8.73-28.88-33.47-49.71-58-67.33q-22.68-16.3-46.5-31c-19.48-12-40.33-23.39-63.14-25.06C80.63,4.59,45.23,27.72,26.31,57,8,85.33,9.4,131.17,16.25,162.92Z"/></svg>