<svg xmlns="http://www.w3.org/2000/svg" viewBox="0 0 1166.92 523.56"><defs><style>.cls-1{fill:#524843}</style></defs><g id="Слой_2" data-name="Слой 2"><g id="Слой_1-2" data-name="Слой 1"><path d="M39.93 421.36c.48 1.21 1 2.41 1.42 3.61.91.35 1.16-.65 1.82-.79 1.18-.25 2.17.05 1.54 1.32-1 2.13.45 2.4 1.68 2.38 4.31-.06 8.39 1.6 12.69 1.49a5.4 5.4 0 0 1 2.09.27c1.8.72 1.92 2 .4 3.29-.62.52-1.42.9-1.68 1.77-4.72-.15-9.54.8-14.07-1.33a2.91 2.91 0 0 1-1.45-.76 10 10 0 0 0-1-.77 7.91 7.91 0 0 1-.79-.48c-.73-.61-1.1-1.61-2.23 0-1.86 2.61-3.22 2.44-4.16 0a3.67 3.67 0 0 1 .45-.8c.18-.24.37-.46.57-.68l.27-.34a1.38 1.38 0 0 0 .17-.85 19.69 19.69 0 0 1-1.84-4.52c-.66-.41-.42-1.07-.47-1.65.11-1.19-.53-2.71 1.33-3.13 1.68-.39 2.54.69 3.26 1.97Z" class="cls-1"/><path d="M39.93 421.36c-.29-.18-.58-.36-.88-.53-2.62-1.53-3.07-1.26-3.38 2-.36.36-.56.29-.63-.21a18.9 18.9 0 0 1-.27-10.62 2 2 0 0 1 2.38 0c.33.45.23 1.07.6 1.5a14.89 14.89 0 0 1 2.18 7.86Z" class="cls-1"/><path d="M37.15 412h-2.38a4.07 4.07 0 0 1 .87-2.07c.26-.3.5-.29.71 0 .27.72.89 1.28.8 2.07ZM37.75 413.54a1.25 1.25 0 0 1-.6-1.5c.69.3.72.87.6 1.5ZM37.79 435c-.64.37-1.21.94-2 .65-.13-1.17-1.06-2-1.49-3a5.4 5.4 0 0 1 2.7-2.13c-.1.56-.47 1.46-.27 1.62a1.53 1.53 0 0 0 2.17-.13 20.28 20.28 0 0 0 2.73-3.87c-.39 1.82 1.21 2.33 1.83 3.43-1.74-.45-3.18-.19-4.13 1.56a13.47 13.47 0 0 1-1.54 1.87Z" class="cls-1"/><path d="M44.93 432.12c-.6.06-1.18.07-1.53-.56a1.14 1.14 0 0 1 1.53.56ZM37 430.52a.76.76 0 0 1 .81-.6.77.77 0 0 1-.81.6ZM37.77 429.91l.69-.82a.86.86 0 0 1-.69.82ZM18.41 11.14c1.25-.08 1.18-1.22 1.61-2 1.47-2.56 3.14-4.91 6.4-5.31 2.37-.11 3.55-2.53 5.75-3l.45.22c.06.16.11.32.17.47-.88 2.28-3.6 2.72-4.74 4.74-.52 2.93-2.4 4.8-5.21 6.17A12.86 12.86 0 0 0 28.1 16c1.33.55 1.08 1.33.46 2.22a16.94 16.94 0 0 1-1.35 2.09c-2.21 2.12-3.84 2.08-5.84-.31-1.32-1.59-2.1-3.59-4.43-4.28-.93-.27-1.26-1.69-1.37-2.76-.22-2.39.69-3.12 2.84-1.82Z" class="cls-1"/><path d="M18.41 11.14c-2.14 0-2.54.27-2 1.8.41 1.13.55 2.49 2.1 3 1.31.42 1.63 1.92 2.45 2.9 3.41 4.11 4.28 2.88 6.54.32a11.61 11.61 0 0 1 1-.94c-.27 2.15-2.17 2.93-3.55 4.11-.75.64-1.6.15-2.2-.48-1.21-1.27-2.63-2.38-3.39-4-.51-1.11-1.28-1.35-2.22-.55a9.87 9.87 0 0 1-3.78 1.8 4.39 4.39 0 0 0-3.14 2.62c-.41 1.08-1 2.15-2.49 2a2.45 2.45 0 0 0-2.41 1.48l-.13.33-.3.19c-1.63-.32-2.07-1.47-2-2.95l.84-2.54c.12-.31.11-.68.42-.91h-.18l.18.06c1.43-3.4 4.27-4.79 7.66-5.46.93-.18 2.57.06 2.07-1.63-1.18-3.91 1.61-2.52 3.3-2.63ZM32.57 1.56l-.39-.69A4.49 4.49 0 0 1 33.65 0a1.43 1.43 0 0 1 1.72.83c.23.72-.42 1-.86 1.32-2.13 1.4-4.3 2.75-6.45 4.12.7-2.34 3.09-3.09 4.51-4.76Z" class="cls-1"/><path d="m2.91 22.76 2 2.95c.09.69-.43 1-.87 1.31-1.26.89-2.31.73-3.12-.62-.16-1.67 1.23-2.48 1.99-3.64Z" class="cls-1"/><path d="m1 26.4 3.08.6c-.15.89-.87 1.35-1.46 1.89s-1 1.46-2 .84S0 28.31.2 27.53A5 5 0 0 1 1 26.4ZM32.17.88c-1.76 1.28-3.22 3.17-5.75 3 1.89-1.07 3.58-2.44 5.75-3ZM5.38 25.19c.28-1.34 1-2 2.41-1.48ZM32.57 1.56a1.2 1.2 0 0 1 .32 0c.09.23 0 .24-.32 0ZM1163.42 158c.08 1.79-.67 3.8 1.37 5 1 1 .49 2 0 3a25.94 25.94 0 0 1-4.73 4.75 5.86 5.86 0 0 0-4.18 2.22c-.7.93-2 2-3.38 1.3s-.91-2.22-.52-3.47a30.63 30.63 0 0 0 2.38-4.54c7.12 1.91 7.79 1.23 6.11-6.36-.34-1.58-.22-3.69-2.89-3.26a.67.67 0 0 1-.78-.29c.47-2.72 1.53-5.43-.12-8.13-.5-.82 0-1.38.81-1.5 1-.16 2-.67 3.08-.14.73.45 1.44.92 2.2 1.3a12.45 12.45 0 0 1 1.32 9.23v.07a7.86 7.86 0 0 1-.67.82ZM1146.18 159.44c-2-.54-2.87-2.44-4.17-3.8-.2-.79-.42-1.56-.59-2.35-.1-.48.23-1.24.51-1.07 2.12 1.3 4.53-1.09 6.56.6-1.8 1.43-1.87 1.63-1.68 4.7a2 2 0 0 1-.63 1.92Z" class="cls-1"/><path d="M1146.18 159.44c-.14-1.74.1-3.6-1.52-4.9a9.9 9.9 0 0 1 3.83-1.72l5.51 5.09a3 3 0 0 1-2.15 1.05 1.63 1.63 0 0 1-.89-.36c-.63-.6-.72-2.07-1.94-1.71-1.63.47-.52 2.39-1.42 3.34a1.56 1.56 0 0 1-1.42-.79ZM1164.06 157.09l-1.32-9.23c2.85 2.73 3.26 5.81 1.32 9.23Z" class="cls-1"/><path d="M1151.94 158.62c.48-.85 1.34-.56 2.06-.71 2.08 1.46 2.06-.69 2.76-1.6l.3.23c1 1.44 1.27 3.43-.23 4-1.66.7-3.62-.33-4.89-1.92ZM1166.92 165c-1 .22-1.75 1-2.81.8.31-.89 1.05-1.68.68-2.75 1.49-.24 2.15.46 2.13 1.95ZM1162.73 147.84a2 2 0 0 1-2.2-1.3c1.08-.14 1.97.03 2.2 1.3ZM1163.42 158a.69.69 0 0 1 .59-.8.69.69 0 0 1-.59.8Z" class="cls-1"/><path d="M1151.94 158.62c1.47.68 3.34.17 4.77 2.58.17-2.2.26-3.43.35-4.66.83-.56.39-1.9 1.67-2.45.66.74.32 2.32 1.78 2.62.82.17.76 1.13.72 1.83a9.28 9.28 0 0 0 .91 4.13c1 2.44.4 4-1.8 5.44-1 .68-2-.33-3.09.24-.87.45-1.38-.61-1.87-1.29a1.54 1.54 0 0 0-1.25-.56.76.76 0 0 1-.81-.59c-.48-.51-1-1-1.47-1.5-.15-1.25-1-2.16-1.54-3.23.22-.15.08-.83.67-.46-.46-.52-.79.53-1.25.1-1-.72-1.45-1.58-.47-2.61.78-.83 1.45-.39 2 .37ZM1160 170.15a25.39 25.39 0 0 1-8.08 5.64c-.66.39-1.34 1.16-2.12.59s-.35-1.46 0-2.17.23-1.35.77-1.85l.08-.09a1 1 0 0 1 .59-.6l1.33-1a16 16 0 0 0-.41 2.36c0 .46.64 1 .88.74.84-1 2.8-.7 3-2.15.22-2.05 1-2.15 2.63-1.41.33.2.88-.02 1.33-.06Z" class="cls-1"/><path d="M1150.52 160.77c.64 1.16 1.83 2.11 1.35 3.67a16 16 0 0 0-4.27-4.21c-.07-.23-.16-.45-.21-.68-.36-1.92.36-4.25 1.45-4.2 1.93.1 2.41 1.58 2.44 3.26-.61-.14-1.31-.71-1.78.12-.65 1.13.22 1.59 1 2.05ZM1150.59 172.36c.17 1.19-.37 2.27-.57 3.4.64.69 1.29-.3 1.91 0 0 .21 0 .42-.08.62a.86.86 0 0 0-.71.71c-1.79.47-3-.05-3.39-2Z" class="cls-1"/><path d="M1151.85 164.41a1.82 1.82 0 0 1 1.47 1.5c-.89-.11-1.47-.52-1.47-1.5ZM1151.26 171.67a.58.58 0 0 1-.59.6c-.02-.42.17-.63.59-.6ZM1150.52 160.78c.16-.31.64-.68.71-.52.33.81-.46.33-.71.51ZM281.41 516.21c-1.25 1.28-3.22 2.11-2.74 4.45-.06 1.39-1.09 1.72-2.17 2a25.85 25.85 0 0 1-6.69-.18 5.94 5.94 0 0 0-4.49-1.52c-1.16.13-2.83-.07-3.26-1.56-.48-1.65 1-2.19 2.16-2.77a31.77 31.77 0 0 0 4.94-1.37c3.5 6.48 4.45 6.5 8.82.08.91-1.34 2.52-2.7.39-4.35a.65.65 0 0 1-.33-.76c2.29-1.53 5-2.62 5.83-5.67.25-.93 1-.93 1.65-.44.81.63 1.88 1 2.22 2.14.17.84.31 1.68.55 2.5a12.45 12.45 0 0 1-5.81 7.3h-.08c-.33.08-.66.13-.99.15ZM268.5 504.68c-1-1.87-.19-3.76-.1-5.65.44-.68.85-1.37 1.31-2 .28-.4 1.05-.69 1.12-.37.51 2.43 3.9 2.55 4.07 5.18-2.28-.32-2.47-.23-4.57 2a2 2 0 0 1-1.83.84Z" class="cls-1"/><path d="M268.5 504.68c1.17-1.29 2.68-2.4 2.53-4.47a10.13 10.13 0 0 1 3.87 1.6q0 3.76.08 7.51a2.93 2.93 0 0 1-2.24-.85 1.52 1.52 0 0 1-.35-.89c0-.87 1-1.94-.08-2.58-1.47-.87-2.1 1.25-3.41 1.25a1.55 1.55 0 0 1-.4-1.57ZM282.48 516.07l5.81-7.3q-.04 5.93-5.81 7.3Z" class="cls-1"/><path d="M273.05 508.31c.95-.24 1.33.59 1.93 1 .36 2.51 1.92 1 3.06.91v.37c-.36 1.71-1.63 3.28-3.09 2.6-1.6-.74-2.18-2.87-1.9-4.88ZM278.72 523.56c-.81-.55-1.91-.61-2.51-1.5.86-.39 1.94-.39 2.46-1.4 1.18.95 1.12 1.91.05 2.9ZM288.29 508.76a2 2 0 0 1-.55-2.5c.83.74 1.31 1.46.55 2.5ZM281.41 516.21a.68.68 0 0 1 1-.12.7.7 0 0 1-1 .12Z" class="cls-1"/><path d="M273.05 508.31c.51 1.53 2.16 2.54 1.4 5.24l3.62-2.95c1 .22 1.66-1 2.93-.46-.08 1-1.46 1.81-.68 3.09.44.71-.3 1.33-.83 1.78a9.13 9.13 0 0 0-2.38 3.49c-1.08 2.43-2.62 3-5.2 2.43-1.19-.28-1.14-1.69-2.29-2.09-.93-.32-.51-1.42-.35-2.23a1.52 1.52 0 0 0-.45-1.3.78.78 0 0 1-.13-1c0-.7.08-1.39.09-2.09.81-1 .88-2.22 1.29-3.34.26.06.66-.5.79.18.07-.7-.92-.22-.93-.84-.16-1.23.16-2.15 1.58-2.14 1.14 0 1.27.79 1.1 1.71ZM270.2 522.09a25.23 25.23 0 0 1-9.65-2c-.73-.21-1.76-.18-1.87-1.13s.81-1.26 1.57-1.49 1.15-.76 1.88-.7h.12a1 1 0 0 1 .84 0l1.62.3a16.86 16.86 0 0 0-2 1.32c-.35.3-.3 1.17.06 1.15 1.3-.06 2.44 1.56 3.6.67 1.65-1.24 2.29-.7 2.83.95.12.38.65.62 1 .93Z" class="cls-1"/><path d="M270.51 508.75c-.4 1.26-.27 2.78-1.74 3.5a15.93 15.93 0 0 0 .13-6c.12-.2.21-.42.35-.61 1.15-1.59 3.34-2.66 4.05-1.83 1.26 1.47.5 2.84-.7 4-.31-.54-.38-1.44-1.31-1.21-1.27.3-1 1.25-.78 2.15ZM262.13 516.76c-.75.94-1.9 1.28-2.87 1.91-.05.94 1.1.73 1.29 1.41-.16.13-.33.25-.51.37a.86.86 0 0 0-1 0c-1.57-1-2-2.21-.9-3.82Z" class="cls-1"/><path d="M268.78 512.22a1.79 1.79 0 0 1-.09 2.09 1.41 1.41 0 0 1 .09-2.09ZM263.09 516.77a.57.57 0 0 1-.84 0 .49.49 0 0 1 .84 0ZM270.51 508.76c.33-.1.93 0 .86.15-.37.81-.56-.11-.86-.16Z" class="cls-1"/></g></g></svg>