<svg id="Layer_1" data-name="Layer 1" xmlns="http://www.w3.org/2000/svg" viewBox="0 0 208.74 181.44"><defs><style>.cls-1{fill:none;stroke:#db1f26;stroke-linecap:round;stroke-linejoin:round;stroke-width:5px;}</style></defs><path class="cls-1" d="M183.07,15.59a53.36,53.36,0,0,0-54.57-4.34,58.25,58.25,0,0,0-22.29,20.17C94.25,13,72.75,2.48,50.72,6.56,29.81,10.44,13.26,26.87,7,46.88c-5.83,18.65-2.53,39.51,5.68,56.94,7.38,15.64,18.61,29.05,31.43,40.54a212.38,212.38,0,0,0,59.51,37.37,5,5,0,0,0,4.17-.12c2.66-1.1,5.28-2.3,7.87-3.54a236.78,236.78,0,0,0,32-18.42c27.74-19,53.51-46,59.09-80.4a88.15,88.15,0,0,0,1.1-13.68C207.7,46.13,199.06,27.06,183.07,15.59Z" transform="translate(-1.56 -3.19)"/></svg>