<?xml version="1.0" encoding="UTF-8"?><svg xmlns="http://www.w3.org/2000/svg" viewBox="0 0 105.58 88.65"><defs><style>.d{fill:#48494a;}</style></defs><g id="a"/><g id="b"><g id="c"><g><path class="d" d="M96.89,88.21c-19.47,.15-58.65,.38-78.13,.44h-.44v-.44l-.06-38.86v-.5h.5c19.47,.02,58.66,.11,78.13,.21h.29v.29l-.29,38.86h0Zm0,0l-.29-38.86,.29,.29c-19.47,.1-58.66,.19-78.13,.21l.5-.5-.06,38.86-.44-.44c19.47,.05,58.66,.29,78.13,.44h0Z"/><path class="d" d="M27.68,49.35c-.21-10.12-.3-20.25-.39-30.37h.39l15.07-.07c13.43-.08,31.8,0,45.22,.07h.39v.38c-.06,7.47-.23,22.52-.39,29.99-.16-7.48-.33-22.51-.38-29.99l.38,.38c-13.43,.07-31.79,.15-45.22,.07l-15.07-.07,.38-.38c-.08,10-.18,19.99-.38,29.99h0Z"/><path class="d" d="M37.32,19.36c-.2-6.41-.3-12.82-.38-19.23,6.96-.1,13.92-.09,20.88-.13,6.96,.04,13.92,.03,20.89,.13-.08,6.41-.18,12.82-.38,19.23-.2-6.29-.3-12.57-.37-18.86l.37,.37c-13.67,.15-27.34,.15-41.01,0l.37-.37c-.08,6.29-.18,12.57-.37,18.86h0Z"/><path class="d" d="M27.68,42.1c14.52-.68,29.15-.68,43.67,0-14.52,.68-29.15,.68-43.67,0h0Z"/><path class="d" d="M71.35,42c-3.9-.64-13.84-4.05-8.26-9.02,5.75-4.7,8.18,4.79,8.26,9.02h0Zm0,0c-.84-3.31-2.77-12.35-7.62-8.25-4.79,3.89,4.81,7.1,7.62,8.25h0Z"/><path class="d" d="M71.62,42.28c-2.23,2.12-8.43,5.48-7.32,8.95-2.57-3.7,4.31-8.04,7.32-8.95h0Z"/><path class="d" d="M74.13,42c.03,2.6-2.92,2.5-3.01,0,.09-2.5,3.04-2.6,3.01,0h0Zm0,0c-.08-1.82-2.03-1.97-2.01,0-.02,1.97,1.93,1.83,2.01,0h0Z"/><path class="d" d="M71.35,42.1c-1.77-.77-7.26-3.8-4.93-6.13,2.77-1.78,4.56,4.23,4.93,6.13h0Zm0,0c-.65-1.03-2.95-6.26-4.31-5.35-1.18,1.14,3.42,4.48,4.31,5.35h0Z"/><path class="d" d="M74.4,42.03c2.8-1.15,12.41-4.36,7.62-8.25-4.85-4.1-6.77,4.94-7.62,8.25h0Zm0,0c.08-4.23,2.52-13.72,8.26-9.02,5.58,4.97-4.35,8.38-8.26,9.02h0Z"/><path class="d" d="M74.13,42.31c3,.9,9.88,5.25,7.32,8.95,1.11-3.46-5.09-6.82-7.32-8.95h0Z"/><path class="d" d="M74.4,42.13c.88-.86,5.48-4.21,4.31-5.35-1.36-.91-3.65,4.31-4.31,5.35h0Zm0,0c.4-1.91,2.13-7.89,4.93-6.13,2.32,2.34-3.15,5.36-4.93,6.13h0Z"/><path class="d" d="M74.13,42c4.61-.68,9.24-.69,13.85,0-4.61,.69-9.24,.68-13.85,0h0Z"/><path class="d" d="M37.32,14.04c13.51-.68,27.13-.68,40.65,0-13.51,.68-27.13,.68-40.65,0h0Z"/><g><path class="d" d="M18.76,54.85c5.15,5.87,11.24,6.46,17.43,1.8,.75-.59,1.49-1.22,2.27-1.8-.62,.74-1.3,1.45-1.96,2.18-5.76,5.59-13.64,4.86-17.75-2.18h0Z"/><path class="d" d="M38.24,54.85c5.15,5.87,11.24,6.46,17.43,1.8,.75-.59,1.49-1.22,2.27-1.8-.62,.74-1.3,1.45-1.96,2.18-5.76,5.59-13.64,4.86-17.75-2.18h0Z"/><path class="d" d="M57.71,54.85c5.15,5.87,11.24,6.46,17.43,1.8,.75-.59,1.49-1.22,2.27-1.8-.62,.74-1.3,1.45-1.96,2.18-5.76,5.59-13.64,4.86-17.75-2.18h0Z"/><path class="d" d="M77.18,54.85c5.15,5.87,11.24,6.46,17.43,1.8,.75-.59,1.49-1.22,2.27-1.8-.62,.74-1.3,1.45-1.96,2.18-5.76,5.59-13.64,4.86-17.75-2.18h0Z"/></g><g><path class="d" d="M18.76,58.92c5.15,5.87,11.24,6.46,17.43,1.8,.75-.59,1.49-1.22,2.27-1.8-.62,.74-1.3,1.45-1.96,2.18-5.76,5.59-13.64,4.86-17.75-2.18h0Z"/><path class="d" d="M38.24,58.92c5.15,5.87,11.24,6.46,17.43,1.8,.75-.59,1.49-1.22,2.27-1.8-.62,.74-1.3,1.45-1.96,2.18-5.76,5.59-13.64,4.86-17.75-2.18h0Z"/><path class="d" d="M57.71,58.92c5.15,5.87,11.24,6.46,17.43,1.8,.75-.59,1.49-1.22,2.27-1.8-.62,.74-1.3,1.45-1.96,2.18-5.76,5.59-13.64,4.86-17.75-2.18h0Z"/><path class="d" d="M77.18,58.92c5.15,5.87,11.24,6.46,17.43,1.8,.75-.59,1.49-1.22,2.27-1.8-.62,.74-1.3,1.45-1.96,2.18-5.76,5.59-13.64,4.86-17.75-2.18h0Z"/></g><g><path class="d" d="M18.76,73.41c5.15,5.87,11.24,6.46,17.43,1.8,.75-.59,1.49-1.22,2.27-1.8-.62,.74-1.3,1.45-1.96,2.18-5.76,5.59-13.64,4.86-17.75-2.18h0Z"/><path class="d" d="M38.24,73.41c5.15,5.87,11.24,6.46,17.43,1.8,.75-.59,1.49-1.22,2.27-1.8-.62,.74-1.3,1.45-1.96,2.18-5.76,5.59-13.64,4.86-17.75-2.18h0Z"/><path class="d" d="M57.71,73.41c5.15,5.87,11.24,6.46,17.43,1.8,.75-.59,1.49-1.22,2.27-1.8-.62,.74-1.3,1.45-1.96,2.18-5.76,5.59-13.64,4.86-17.75-2.18h0Z"/><path class="d" d="M77.18,73.41c5.15,5.87,11.24,6.46,17.43,1.8,.75-.59,1.49-1.22,2.27-1.8-.62,.74-1.3,1.45-1.96,2.18-5.76,5.59-13.64,4.86-17.75-2.18h0Z"/></g><g><path class="d" d="M18.76,77.48c5.15,5.87,11.24,6.46,17.43,1.8,.75-.59,1.49-1.22,2.27-1.8-.62,.74-1.3,1.45-1.96,2.18-5.76,5.59-13.64,4.86-17.75-2.18h0Z"/><path class="d" d="M38.24,77.48c5.15,5.87,11.24,6.46,17.43,1.8,.75-.59,1.49-1.22,2.27-1.8-.62,.74-1.3,1.45-1.96,2.18-5.76,5.59-13.64,4.86-17.75-2.18h0Z"/><path class="d" d="M57.71,77.48c5.15,5.87,11.24,6.46,17.43,1.8,.75-.59,1.49-1.22,2.27-1.8-.62,.74-1.3,1.45-1.96,2.18-5.76,5.59-13.64,4.86-17.75-2.18h0Z"/><path class="d" d="M77.18,77.48c5.15,5.87,11.24,6.46,17.43,1.8,.75-.59,1.49-1.22,2.27-1.8-.62,.74-1.3,1.45-1.96,2.18-5.76,5.59-13.64,4.86-17.75-2.18h0Z"/></g><g><path class="d" d="M38.27,25.48c-.05,.89-.01,2.27-1.1,2.55-1.69-.15-1.87-2.83-1.3-4.05,.29-.83,1.42-1.58,1.99-.56,.35,.63,.4,1.36,.41,2.06h0Zm0,0c0-.69-.33-2.07-1.1-2.05-.56,.3-.59,1.42-.6,2.05,.02,.63,.04,1.76,.6,2.06,.77,.02,1.11-1.37,1.1-2.06h0Z"/><path class="d" d="M35.13,25.92c.65,.61,1.73,1.47,1.25,2.49-1.47,1.55-5.18-1.56-3.91-3.28,.92-.65,1.95,.27,2.67,.8h0Zm0,0c-.52-.45-1.8-1.08-2.28-.48-.19,.91,2.28,2.99,3.15,2.64,.51-.58-.34-1.73-.87-2.17h0Z"/><path class="d" d="M33.44,28.61c.89-.1,2.24-.38,2.71,.64,.26,2.11-4.56,2.97-5.03,.89,.09-1.13,1.46-1.32,2.33-1.53h0Zm0,0c-.68,.11-1.98,.69-1.83,1.44,.58,.74,3.76,.18,4.05-.71-.12-.77-1.54-.86-2.22-.73h0Z"/><path class="d" d="M34.42,31.63c.49-.74,1.14-1.96,2.23-1.66,1.56,1.15-.08,4.11-1.63,4.53-1.92,.42-1.22-1.96-.6-2.87h0Zm0,0c-.35,.59-.75,1.96-.07,2.33,.93,.03,2.55-2.76,2.05-3.56-.66-.4-1.65,.63-1.98,1.23h0Z"/><path class="d" d="M37.36,32.83c-.25-.86-.77-2.13,.16-2.78,2.03-.63,3.71,3.97,1.75,4.8-1.12,.11-1.55-1.21-1.91-2.02h0Zm0,0c.22,.65,1.02,1.83,1.74,1.55,.62-.7-.47-3.73-1.4-3.86-.73,.25-.58,1.67-.33,2.31h0Z"/><path class="d" d="M40.17,31.34c-.82-.35-2.13-.79-2.02-1.91,.83-1.96,5.43-.29,4.8,1.75-.64,.93-1.92,.42-2.78,.16h0Zm0,0c.93,.46,3.46,.09,1.68-1.07-.81-.46-2.4-1.22-3.24-.66-.28,.72,.91,1.51,1.55,1.74h0Z"/><path class="d" d="M40.83,28.23c-.8,.4-1.97,1.12-2.76,.32-.97-1.89,3.27-4.35,4.42-2.55,.3,1.09-.92,1.74-1.66,2.23h0Zm0,0c.6-.33,1.63-1.32,1.23-1.98-.79-.49-3.59,1.11-3.56,2.05,.37,.68,1.74,.28,2.33-.07h0Z"/><path class="d" d="M38.46,29.07c-.01,1.98-3,2.12-3.08,0,.08-2.13,3.06-1.98,3.08,0h0Zm0,0c-.07-1.47-2.08-1.33-2.08,0,0,1.34,2.01,1.47,2.08,0h0Z"/></g><g><path class="d" d="M50.73,30.14c0,.7-.06,1.43-.41,2.06-.59,1.02-1.68,.28-1.99-.56-1.43-3.09,2.29-6.55,2.4-1.5h0Zm0,0c0-.68-.33-2.07-1.1-2.05-.8,.6-.64,2.34-.48,3.27,.49,2.07,1.71-.18,1.59-1.21h0Z"/><path class="d" d="M47.59,30.57c.65,.61,1.73,1.47,1.25,2.49-1.45,1.56-5.2-1.58-3.91-3.28,.92-.65,1.95,.27,2.67,.8h0Zm0,0c-.52-.45-1.8-1.08-2.28-.48-.19,.91,2.28,2.99,3.15,2.64,.51-.58-.33-1.73-.87-2.17h0Z"/><path class="d" d="M45.9,33.27c.89-.1,2.24-.38,2.71,.64,.14,1.92-3.22,2.58-4.52,1.66-1.56-1.2,.72-2.2,1.81-2.3h0Zm0,0c-.68,.11-1.98,.69-1.83,1.44,.58,.74,3.76,.18,4.05-.71-.12-.77-1.54-.86-2.22-.73h0Z"/><path class="d" d="M46.88,36.29c.49-.75,1.14-1.96,2.23-1.66,1.56,1.15-.08,4.11-1.63,4.53-1.92,.42-1.22-1.96-.6-2.87h0Zm0,0c-.35,.59-.75,1.96-.07,2.33,.93,.03,2.55-2.76,2.05-3.56-.66-.4-1.65,.63-1.98,1.23h0Z"/><path class="d" d="M49.83,37.48c-.25-.86-.77-2.14,.16-2.78,2.03-.63,3.71,3.97,1.75,4.8-1.12,.11-1.55-1.2-1.91-2.02h0Zm0,0c.22,.65,1.02,1.83,1.74,1.55,.62-.7-.47-3.73-1.4-3.86-.73,.25-.57,1.67-.33,2.31h0Z"/><path class="d" d="M52.63,35.99c-.82-.36-2.13-.79-2.02-1.91,.83-1.96,5.43-.29,4.8,1.75-.64,.93-1.92,.42-2.78,.16h0Zm0,0c.64,.24,2.06,.4,2.31-.33-.13-.93-3.16-2.04-3.86-1.41-.28,.72,.91,1.51,1.55,1.74h0Z"/><path class="d" d="M53.29,32.89c-.8,.4-1.97,1.12-2.76,.32-.97-1.89,3.27-4.35,4.42-2.55,.3,1.09-.92,1.74-1.66,2.23h0Zm0,0c.6-.33,1.63-1.32,1.23-1.98-.79-.49-3.59,1.11-3.56,2.05,.37,.68,1.74,.28,2.33-.07h0Z"/><path class="d" d="M50.92,33.73c-.01,1.98-3,2.12-3.08,0,.08-2.13,3.06-1.98,3.08,0h0Zm0,0c-.07-1.47-2.08-1.33-2.08,0,0,1.34,2.01,1.47,2.08,0h0Z"/></g><g><path class="d" d="M88,48.75c.84-3.17,2.68-9.3,6.69-9.41,1.34,.15,2.72,.97,2.82,2.47-.36,3.43-6.67,5.85-9.51,6.93h0Zm0,0c1.93-1.1,3.88-2.2,5.66-3.52,1.12-.93,2.69-1.93,2.87-3.4-.01-.37-.25-.71-.64-.99-3.6-2.53-6.71,5.42-7.89,7.91h0Z"/><path class="d" d="M96.89,26.76c-3.65,6.37-6.79,12.98-8.89,20.02,.73-7.36,4.09-14.44,8.89-20.02h0Z"/><path class="d" d="M91.3,39.1c-2.31-4.2-5.81-12.66,.39-15.17,.59-.19,1.44-.16,1.94,.35,2.27,2.98-1.07,11.53-2.33,14.82h0Zm0,0c.52-2.61,3.59-12.71,1.39-14.26-6.16,.68-2.86,10.58-1.39,14.26h0Z"/><path class="d" d="M96.55,27.08c.31-2.83,2.53-14.74,7.04-9.98,4.21,5.04-2.67,9.09-7.04,9.98h0Zm0,0c2.82-1.39,6.78-3.05,7.36-6.46,.11-1.27-.89-3.31-2.19-3.67-2.62,.3-4.36,7.79-5.17,10.13h0Z"/><path class="d" d="M93.11,34.36c1.94-4.3,7.03-8.57,11.75-5.4,3.98,3.65-9.74,5.28-11.75,5.4h0Zm0,0c1.1-.36,13.43-3.04,11.16-4.6-4.25-2.8-8.76,1.12-11.16,4.6h0Z"/></g><g><path class="d" d="M17.58,87.74c-1.18-2.48-4.29-10.44-7.89-7.91-.39,.28-.63,.62-.64,.99,.18,1.47,1.74,2.47,2.87,3.4,1.78,1.32,3.73,2.42,5.66,3.52h0Zm0,0c-2.83-1.07-9.15-3.51-9.51-6.93,.1-1.5,1.48-2.32,2.82-2.47,3.98,.08,5.87,6.26,6.69,9.41h0Z"/><path class="d" d="M8.7,65.75c4.79,5.58,8.15,12.66,8.89,20.02-2.1-7.05-5.24-13.66-8.89-20.02h0Z"/><path class="d" d="M14.28,78.08c1.4-3.88,4.59-12.14-.68-14.22-.52-.13-.91-.14-1.16,.39-.67,1.77-.17,3.91,.07,5.8,.45,2.7,1.12,5.36,1.77,8.02h0Zm0,0c-1.25-3.27-4.6-11.84-2.33-14.82,.5-.51,1.35-.55,1.94-.35,6.19,2.46,2.7,11.01,.39,15.17h0Z"/><path class="d" d="M9.04,66.06c-.8-2.34-2.55-9.83-5.17-10.13-1.31,.36-2.3,2.4-2.19,3.67,.58,3.42,4.53,5.06,7.36,6.46h0Zm0,0c-4.38-.89-11.25-4.94-7.04-9.98,4.51-4.75,6.73,7.13,7.04,9.98h0Z"/><path class="d" d="M12.48,73.34c-2.4-3.48-6.91-7.4-11.16-4.6-2.27,1.56,10.02,4.22,11.16,4.6h0Zm0,0c-1.97-.11-15.75-1.75-11.75-5.4,4.72-3.17,9.81,1.1,11.75,5.4h0Z"/></g></g></g></g></svg>