<?xml version="1.0" encoding="UTF-8"?><svg xmlns="http://www.w3.org/2000/svg" viewBox="0 0 78.57 90.7"><defs><style>.d{fill:#48494a;}</style></defs><g id="a"/><g id="b"><g id="c"><g><path class="d" d="M28.1,13.4c.3-1.63,.65-3.28,1.39-4.8,.72-1.52,2-2.86,3.64-3.39,1.62-.55,3.33-.49,4.97-.4l4.94,.32,4.95,.25c1.64,.1,3.32,.09,4.94,.61,.8,.27,1.57,.68,2.17,1.3,.62,.6,1.02,1.38,1.3,2.18,.52,1.62,.51,3.33,.44,4.98,0,.12-.11,.21-.23,.21-.11,0-.2-.1-.21-.21v-.02c-.08-1.64-.15-3.3-.72-4.72-.52-1.45-1.61-2.46-3.04-2.83-1.43-.38-3.04-.42-4.7-.49l-4.95-.21-4.94-.34c-1.62-.11-3.19-.12-4.59,.29-1.4,.4-2.5,1.46-3.23,2.83-.78,1.35-1.18,2.95-1.62,4.54v.03c-.05,.14-.19,.22-.33,.18-.13-.04-.21-.17-.19-.3Z"/><path class="d" d="M28.51,13.71c.3-.62,.88-1.03,1.47-1.25,.59-.23,1.2-.32,1.8-.39l3.58-.28c1.19-.07,2.38-.23,3.58-.22,1.2,0,2.39,.06,3.58,.14l7.14,.48,3.57,.24c.6,.04,1.21,.11,1.8,.32,.58,.2,1.18,.6,1.44,1.24,.04,.11,0,.24-.12,.28-.1,.04-.21,0-.26-.09l-.02-.03c-.56-.92-1.78-1.01-2.9-1l-3.58-.06c-2.38-.05-4.78-.25-7.14-.34-1.18-.09-2.35-.15-3.52-.17-1.16-.03-2.34,.16-3.52,.15l-3.54,.12c-1.13,.04-2.3,.2-2.89,1.07l-.03,.04c-.08,.12-.24,.15-.36,.07-.11-.07-.14-.21-.09-.33Z"/><path class="d" d="M13.6,44.09c-.66-1.45-1.86-2.6-2.86-3.92-1.02-1.33-1.69-2.89-2.17-4.47-.47-1.59-.82-3.19-1.15-4.81-.14-.81-.22-1.66-.1-2.49,.12-.83,.43-1.62,.79-2.36,.73-1.47,1.4-3,2.55-4.24,1.15-1.24,2.84-1.91,4.51-1.92,1.69-.03,3.38,.69,4.51,1.95,1.14,1.25,1.79,2.95,1.69,4.66,0,.12-.11,.21-.23,.2-.11,0-.2-.1-.2-.21v-.02c-.07-3.2-2.85-5.89-5.77-5.65-1.43,.1-2.85,.64-3.79,1.69-.96,1.03-1.63,2.56-2.32,3.99-.34,.7-.61,1.38-.71,2.06-.11,.67-.05,1.4,.08,2.16,.29,1.54,.68,3.18,1.06,4.7,.41,1.53,.99,2.99,1.9,4.26,.86,1.31,2.09,2.56,2.68,4.2v.02c.06,.14-.01,.28-.15,.33-.13,.05-.27-.02-.32-.14Z"/><path class="d" d="M62.05,23.01c1.68-2.65,5.04-4.09,8.08-3.39,1.51,.35,2.9,1.15,3.95,2.27,1.07,1.11,1.73,2.57,1.97,4.08,.52,3.05-.34,6.07-1.07,8.97-.76,2.88-1.78,5.94-4.14,8.02-.09,.08-.23,.07-.31-.02-.07-.08-.07-.21,0-.29l.02-.02c1-1.09,1.76-2.34,2.27-3.71,.56-1.34,.93-2.77,1.26-4.23,.64-2.91,1.46-5.85,.93-8.54-.21-1.34-.76-2.57-1.68-3.54-.9-.99-2.13-1.66-3.41-2.03-2.59-.69-5.66,.41-7.43,2.71l-.02,.02c-.09,.11-.25,.13-.36,.05-.11-.08-.13-.23-.06-.34Z"/><path class="d" d="M20.25,25.27c-.02-2.14,1.4-3.98,3.1-5.04,1.75-1.07,3.79-1.42,5.76-1.58,3.95-.28,7.9-.39,11.86-.4,3.95-.04,7.91,.03,11.86,.24,1.97,.12,3.96,.15,5.92,.63,1.93,.47,3.86,1.51,4.93,3.3,.06,.1,.03,.24-.07,.3-.1,.06-.23,.03-.29-.06v-.02c-1.09-1.59-2.92-2.45-4.75-2.79-1.84-.39-3.81-.37-5.78-.44-3.93-.11-7.87-.21-11.8-.12-3.93-.02-7.88,.13-11.78,.31-1.92,.11-3.82,.4-5.4,1.3-1.58,.86-2.93,2.44-3.01,4.33v.02c0,.14-.13,.25-.27,.25-.14,0-.25-.12-.25-.26Z"/><path class="d" d="M19.48,20.88c-.04-3.25,.12-6.51,.46-9.74,.18-1.62,.37-3.22,.69-4.84,.32-1.57,.98-3.3,2.49-4.19,.73-.44,1.53-.67,2.31-.88,.79-.21,1.59-.39,2.39-.53,1.61-.28,3.23-.44,4.85-.54,3.24-.18,6.49-.2,9.74-.11,3.24,.07,6.49,.26,9.72,.57,1.61,.19,3.24,.25,4.83,.71,.79,.24,1.55,.64,2.14,1.25,.59,.6,1,1.34,1.3,2.11,.57,1.55,.83,3.16,1.18,4.74,.32,1.59,.62,3.19,.87,4.79,.51,3.21,.88,6.44,1.12,9.68,0,.12-.08,.22-.2,.23-.12,0-.22-.08-.23-.19h0c-.34-3.23-.82-6.43-1.44-9.6-.29-1.59-.6-3.17-.95-4.74-.37-1.56-.68-3.19-1.22-4.57-.56-1.41-1.47-2.36-2.87-2.75-1.37-.4-3.05-.48-4.64-.65-3.21-.3-6.42-.47-9.64-.52-3.21-.09-6.45-.07-9.65,.09-1.6,.09-3.18,.25-4.73,.52-.78,.13-1.54,.31-2.3,.5-.77,.19-1.49,.4-2.07,.74-1.16,.64-1.78,2.04-2.11,3.54-.33,1.52-.54,3.15-.75,4.74-.44,3.19-.7,6.41-.76,9.65h0c0,.15-.12,.27-.27,.27-.14,0-.25-.12-.26-.26Z"/><path class="d" d="M7.89,28.36c.85,.35,1.86,.33,2.74-.01,.89-.33,1.68-.97,2.14-1.81,.43-.86,.51-1.87,.27-2.79-.22-.93-.78-1.78-1.56-2.28-.1-.06-.13-.19-.06-.29,.05-.08,.16-.12,.25-.09l.07,.03c.52,.18,.96,.54,1.35,.94,.36,.43,.64,.94,.84,1.48,.39,1.09,.33,2.38-.23,3.49-.58,1.1-1.59,1.9-2.71,2.21-.56,.15-1.14,.22-1.7,.18-.56-.09-1.11-.23-1.56-.56l-.07-.05c-.11-.08-.14-.24-.06-.35,.07-.1,.2-.13,.3-.09Z"/><path class="d" d="M71.83,20.63c-.63,.72-1.15,1.57-1.33,2.51-.21,.93,0,1.94,.65,2.66,.66,.71,1.56,1.15,2.44,1.55,.44,.19,.9,.36,1.37,.42,.47,.05,.93-.04,1.26-.32,.09-.08,.22-.07,.3,.02,.07,.08,.07,.18,.01,.26l-.04,.06c-.36,.49-1.04,.67-1.62,.7-.59-.01-1.13-.15-1.65-.31-.98-.32-1.99-.77-2.85-1.68-.41-.46-.74-1.06-.88-1.69-.13-.64-.11-1.28,.07-1.84,.33-1.14,1.01-2.02,1.86-2.66l.07-.05c.11-.08,.27-.06,.36,.05,.07,.1,.07,.23-.01,.32Z"/><path class="d" d="M10.59,43.63c10.01,.29,20.02-.61,30.05-.87,10.03-.35,20.06,0,30.08,.35,.12,0,.21,.1,.21,.22,0,.12-.1,.21-.21,.21h-.01l-7.53,.07h-7.51c-5.01,0-10-.02-14.99,.2-4.99,.1-9.99,.43-15.01,.56-2.51,.06-5.02,.11-7.54,.1-2.52-.05-5.03-.15-7.54-.32h-.01c-.14-.01-.25-.13-.24-.28,0-.14,.13-.25,.27-.24Z"/><path class="d" d="M12.51,49.78c9.6-.85,19.22-1.37,28.85-1.54,9.63-.26,19.27-.2,28.89,.21,.12,0,.21,.11,.21,.23,0,.12-.1,.21-.21,.21h-.01l-14.43,.14c-4.81,.06-9.61,.09-14.41,.26-4.8,.06-9.6,.27-14.41,.44l-14.42,.57h-.02c-.14,0-.26-.11-.27-.25,0-.14,.1-.26,.24-.27Z"/><path class="d" d="M71.9,43.03c.37-.05,.76-.08,1.17,.05,.43,.1,.73,.6,.64,1.01-.17,.78-.57,1.35-.91,1.99-.33,.63-.71,1.25-1.12,1.84-.42,.57-.87,1.2-1.63,1.51-.1,.04-.22,0-.26-.11-.03-.08-.01-.16,.04-.22l.09-.09c.24-.25,.43-.48,.57-.77,.17-.26,.31-.55,.45-.86,.29-.63,.63-1.21,.93-1.81l.48-.89c.18-.3,.32-.6,.4-.7,.04-.09,.19,0,.08-.16-.13-.16-.48-.21-.84-.3l-.13-.03c-.13-.03-.21-.16-.18-.29,.02-.1,.11-.17,.2-.19Z"/><path class="d" d="M10.92,44.16c-.09-.12-.34-.12-.55,.03-.2,.15-.3,.38-.28,.66,.02,.55,.37,1.09,.64,1.62,.63,1.03,1.28,2.06,2.09,2.95,.07,.08,.07,.21-.01,.28-.06,.06-.15,.07-.22,.03l-.11-.05c-.31-.15-.55-.35-.83-.53-.24-.21-.47-.43-.7-.65-.45-.45-.81-.97-1.13-1.51-.15-.29-.29-.54-.43-.86-.12-.33-.29-.73-.24-1.22,0-.46,.29-1.09,.73-1.32,.22-.12,.47-.18,.72-.17,.26,0,.53,.14,.66,.34l.08,.12c.07,.12,.04,.27-.08,.34-.11,.07-.25,.04-.32-.05Z"/><path class="d" d="M18.86,43.71c-.06,.89,.03,1.78,.04,2.67,.1,.89,.13,1.78,.3,2.65,.02,.1-.05,.21-.15,.23-.07,.01-.14-.01-.18-.06l-.1-.11c-.18-.2-.26-.42-.4-.63l-.25-.66c-.16-.44-.22-.89-.27-1.34-.02-.45-.04-.91,.06-1.37l.14-.68c.1-.23,.15-.46,.29-.68l.09-.15c.07-.11,.21-.14,.32-.07,.08,.05,.11,.13,.11,.21Z"/><path class="d" d="M64.99,43.19c0,.79,.11,1.56,.1,2.33,.08,.77,.05,1.55,.12,2.33,0,.1-.06,.19-.16,.2-.06,0-.12-.02-.16-.07l-.11-.15c-.15-.2-.22-.39-.33-.58l-.2-.56c-.13-.37-.17-.74-.21-1.11,0-.37-.02-.74,.06-1.12l.12-.58c.09-.2,.13-.4,.25-.61l.11-.19c.06-.1,.19-.14,.3-.08,.07,.04,.11,.11,.11,.18Z"/><path class="d" d="M27.77,44.82c4.55-.49,9.11-.91,13.68-1.03,4.57-.21,9.14-.13,13.72,.03,.12,0,.21,.1,.21,.22,0,.11-.09,.2-.2,.21h-.04c-1.15,.1-2.29,.12-3.43,.2l-3.41,.13c-2.27,.09-4.54,.12-6.81,.27-2.27,.03-4.53,.19-6.81,.27l-3.41,.14c-1.14,.01-2.28,.09-3.43,.08h-.04c-.14,0-.26-.12-.26-.26,0-.13,.1-.24,.23-.26Z"/><path class="d" d="M29.33,44.24c-.21,.68-.24,1.39-.31,2.09,.03,.71,.01,1.42,.19,2.11,.02,.09-.03,.19-.13,.21-.06,.01-.12,0-.16-.04l-.14-.13c-.18-.16-.26-.34-.39-.52l-.23-.54c-.14-.37-.17-.74-.18-1.11,.02-.37,.05-.74,.21-1.1,.08-.18,.15-.36,.24-.53,.13-.17,.22-.34,.4-.5l.17-.15c.09-.08,.22-.07,.3,.02,.05,.06,.06,.14,.04,.2Z"/><path class="d" d="M56.19,43.83c-.1,.64-.09,1.27-.17,1.9,.01,.64-.07,1.26-.03,1.91,0,.09-.07,.17-.16,.18-.05,0-.1-.02-.14-.06l-.14-.17c-.14-.17-.2-.33-.3-.5l-.16-.48c-.11-.32-.11-.62-.12-.92,.03-.3,.05-.61,.18-.91l.19-.46c.11-.16,.18-.31,.33-.47l.18-.19c.08-.08,.2-.08,.28,0,.05,.05,.07,.11,.06,.18Z"/><path class="d" d="M27.81,47.46c5.52-.73,11.09-.66,16.63-.55,5.54,.02,11.09,.08,16.58-.58,.12-.01,.23,.07,.24,.19,.01,.11-.06,.21-.17,.24h-.03c-1.36,.32-2.75,.5-4.13,.7-1.39,.14-2.78,.26-4.17,.35-2.78,.16-5.56,.12-8.33,.15-2.77-.08-5.52-.09-8.27-.12-1.38-.02-2.75,0-4.13,.02l-2.07,.03c-.69,.04-1.38,.06-2.07,.07h-.04c-.14,0-.26-.11-.26-.25,0-.13,.1-.24,.23-.26Z"/><path class="d" d="M16.16,49.14c.31,1.83,.64,3.65,.99,5.47l.52,2.73c.04,.23,.08,.46,.2,.58,.12,.12,.34,.14,.55,.12l1.38-.15,2.76-.35c.22-.04,.49-.04,.6-.14,.12-.1,.12-.33,.13-.57l.08-1.39c.12-1.85,.21-3.7,.27-5.55,0-.12,.1-.21,.22-.21,.11,0,.19,.09,.21,.19v.04c.11,.94,.12,1.86,.18,2.8l.03,2.79c0,.46,0,.93-.02,1.39,0,.11,0,.23-.03,.44-.03,.19-.12,.53-.42,.8-.31,.27-.61,.31-.76,.34l-.37,.05-2.75,.4-1.41,.14c-.15,.01-.34,.02-.58-.02-.23-.04-.55-.16-.79-.41-.47-.55-.41-.91-.47-1.09-.15-.92-.35-1.83-.45-2.76l-.36-2.77c-.07-.93-.19-1.86-.21-2.79v-.04c0-.14,.11-.26,.25-.27,.13,0,.24,.09,.26,.22Z"/><path class="d" d="M61.2,48.67c.2,2.68,.48,5.35,.74,8.02l-.17-.12c1.13-.32,2.21,.1,3.26,.23,.53,.07,1.07,.09,1.55-.09,.23-.09,.49-.21,.62-.39,.13-.17,.13-.45,.17-.72l.4-3.22,.31-2.87c-.12,.01-.23-.07-.24-.19-.01-.12,.07-.23,.19-.24,.15-.04,.36,.08,.41,.19,.07,.11,.1,.2,.11,.29,.03,.21,.02,.33,.02,.47v.82c-.01,.54,0,1.09-.04,1.63-.07,1.08-.09,2.17-.2,3.25l-.05,.44c-.03,.18-.09,.48-.29,.75-.41,.49-.71,.57-1.07,.74-.73,.27-1.44,.24-2.03,.17-1.18-.14-2.14-.49-2.81-.28-.47,.15-.97-.12-1.12-.58-.02-.06-.03-.12-.04-.18h0l-.17-2-.07-2c-.06-1.33-.05-2.68,0-4.04v-.06c0-.14,.13-.25,.27-.25,.13,0,.24,.11,.24,.24Z"/><path class="d" d="M30.19,37.26c-.36,.54-.74,1.1-1.08,1.63-.33,.52-.47,1.17-.04,1.5,.41,.32,1.14,.23,1.54-.17,.44-.4,.67-1.02,.88-1.63,.03-.1,.13-.15,.23-.12,.09,.03,.14,.12,.13,.21-.08,.51-.14,1.06,.04,1.5,.17,.45,.68,.66,1.14,.49,.47-.14,.81-.57,.84-1.07,.04-.49-.15-1.01-.46-1.41-.04-.05-.04-.13,.01-.17,.03-.02,.06-.03,.09-.03,.49,.06,1-.19,1.31-.59,.32-.4,.38-.97,.13-1.41-.24-.44-.7-.77-1.19-.81-.47-.08-1.06,.31-.94,.71l-.22-.06c.41-.35,.33-1,.1-1.5-.23-.51-.61-1-1.09-1.23-.49-.25-1.02,.09-1.17,.61-.17,.51,0,1.08,.18,1.64l-.37,.08s-.07-.05-.16-.01c-.05,.01-.12,.14-.13,.27-.02,.3-.02,.67,0,.99,.03,.64,.32,1.29,.86,1.5,.11,.04,.17,.17,.13,.28-.04,.11-.15,.16-.26,.13h-.02c-.4-.12-.73-.41-.94-.75-.22-.35-.32-.74-.37-1.11-.05-.4-.09-.67-.08-1.13,.04-.24,.06-.59,.53-.85,.2-.09,.4-.11,.62-.05,.21,.04,.54,.29,.57,.64,.03,.32-.2,.6-.51,.64-.27,.03-.52-.14-.61-.39h0c-.19-.56-.49-1.27-.25-2.15,.13-.41,.37-.82,.82-1.1,.46-.29,1.08-.28,1.52-.09,.85,.41,1.28,.98,1.62,1.67,.15,.35,.28,.74,.28,1.21,.02,.46-.19,1.07-.62,1.44-.36,.31-.91,.27-1.22-.1-.07-.08-.12-.17-.16-.27v-.02c-.13-.35-.07-.79,.08-1.06,.15-.29,.34-.47,.54-.62,.4-.3,.95-.4,1.36-.35,.88,.09,1.6,.6,2.02,1.35,.2,.38,.31,.85,.26,1.31-.05,.46-.22,.88-.48,1.21-.51,.65-1.33,1.1-2.27,1l.82-1.5c.47,.59,.76,1.32,.69,2.15-.04,.41-.17,.83-.47,1.22-.29,.36-.66,.6-1.08,.74-.41,.13-.91,.16-1.39-.03-.49-.2-.83-.6-1.01-1.01-.33-.84-.16-1.49-.07-2.06l1.52,.36c-.24,.63-.52,1.39-1.19,1.99-.71,.62-1.79,.81-2.64,.16-.43-.35-.59-.93-.52-1.38,.07-.46,.27-.8,.46-1.1,.41-.58,.81-1.06,1.23-1.58l.02-.02c.09-.11,.25-.13,.37-.04,.1,.08,.13,.23,.05,.34Z"/><path class="d" d="M34.4,37.59c.26-.91,1.36-1.27,2.08-.76,.7,.54,.63,1.67-.1,2.13-.07,.05-.17,.02-.22-.05-.04-.06-.03-.13,0-.18,.33-.45,.91-.66,1.44-.55,.53,.12,.96,.55,1.07,1.08,.11,.53-.11,1.06-.45,1.44-.36,.38-.85,.59-1.34,.68-.98,.17-2.06,.02-2.88-.62-.8-.63-1.25-1.82-.73-2.84,.05-.1,.18-.15,.29-.09,.09,.05,.13,.15,.11,.24l-.02,.07c-.22,.85,.28,1.64,.86,1.99,.62,.37,1.48,.4,2.19,.25,.34-.09,.63-.23,.76-.4,.16-.18,.21-.4,.19-.49-.05-.26-.4-.44-.69-.19l-1.09-1.17s.16-.07,.2-.23c.04-.16,0-.32-.06-.41-.05-.1-.26-.21-.5-.17-.23,.04-.47,.16-.61,.39l-.05,.09c-.07,.12-.22,.16-.34,.09-.1-.06-.15-.18-.12-.29Z"/><path class="d" d="M29.6,35.76c.15-.73,.17-1.5-.08-2.18-.25-.67-.84-1.25-1.54-1.37-.35-.06-.69,.03-.8,.35-.12,.33-.18,.72-.17,1.08,.02,.75,.29,1.49,.77,2.06l-.2,.16c-.3-.41-.66-.78-1.11-1.01-.44-.23-.98-.26-1.42-.04-.44,.2-.77,.68-.63,1.14,.12,.44,.61,.83,1.03,.66l.05,.25c-.56,.02-.87,.78-.69,1.32,.15,.58,.65,1.03,1.24,1.13,.59,.11,1.22-.06,1.72-.4,.52-.34,.94-.81,1.33-1.31,.07-.09,.21-.11,.3-.03,.09,.07,.11,.19,.05,.28l-.02,.03c-.34,.57-.75,1.12-1.33,1.57-.57,.46-1.37,.76-2.21,.63-.86-.09-1.71-.77-1.97-1.67-.15-.43-.15-1.04,.07-1.5,.19-.46,.73-1.02,1.49-1.03,.47,0,.85,.37,.86,.84,0,.36-.21,.67-.52,.8h-.03c-.55,.24-1.18,.09-1.55-.19-.39-.28-.66-.65-.8-1.11-.15-.46-.05-1.08,.19-1.45,.24-.41,.59-.7,.96-.88,.37-.18,.77-.27,1.19-.27,.44,.02,.8,.14,1.14,.3,.66,.34,1.12,.83,1.49,1.34l.02,.02c.29,.4,.2,.96-.21,1.25-.38,.27-.91,.2-1.21-.15-.65-.77-.99-1.73-1-2.71,0-.51,.07-.93,.29-1.48,.11-.3,.48-.7,.85-.81,.36-.13,.68-.11,.96-.06,1.09,.24,1.83,1.07,2.09,1.96,.27,.9,.18,1.78-.09,2.56v.04c-.06,.14-.21,.21-.34,.16-.12-.04-.2-.17-.17-.3Z"/><path class="d" d="M26.55,35.1c-.7-1.17-.7-2.49-.91-3.69-.1-.6-.24-1.2-.51-1.74-.27-.53-.69-1-1.18-1.34-.25-.19-.39,.07-.4,.37-.02,.3-.02,.61,.02,.91,.07,.6,.25,1.19,.51,1.74,.53,1.09,1.46,1.99,2.56,2.43,.11,.04,.16,.17,.12,.28-.04,.1-.14,.15-.24,.13h-.06c-.66-.13-1.27-.47-1.84-.86-.54-.44-1-.97-1.37-1.58-.38-.6-.59-1.31-.71-2.03-.06-.36-.05-.73-.04-1.1,.03-.23,.01-.53,.37-.98,.19-.23,.58-.42,.93-.4,.35,.01,.56,.14,.69,.21,.71,.49,1.18,1.05,1.54,1.74,.33,.7,.49,1.41,.53,2.07l.11,1.86c0,.6,.11,1.14,.29,1.71l.03,.08c.04,.13-.03,.28-.16,.32-.11,.04-.24-.01-.29-.11Z"/><path class="d" d="M26.69,35.09c-1.23-1.61-2.48-3.21-3.75-4.79l-1.89-2.38c-.32-.4-.62-.79-1-1.11-.19-.16-.39-.29-.61-.39-.13-.05-.15-.06-.19,0-.04,.08-.07,.21-.08,.31-.01,.47,.26,.92,.52,1.33,.27,.43,.56,.84,.85,1.25,.6,.81,1.27,1.57,1.98,2.28,.72,.7,1.49,1.36,2.31,1.94,.82,.56,1.7,1.16,2.63,1.11,.12,0,.22,.08,.23,.2,0,.11-.07,.21-.18,.23h-.03c-1.17,.2-2.2-.47-3.08-.95-.89-.56-1.73-1.19-2.52-1.88-.81-.68-1.49-1.5-2.14-2.33-.32-.42-.63-.85-.92-1.3-.26-.44-.7-.98-.7-1.93,0-.12,.02-.23,.05-.35,.03-.11,.05-.24,.18-.45,.09-.19,.46-.54,.9-.55,.4,0,.54,.11,.6,.13,.33,.15,.61,.34,.85,.55,.48,.42,.82,.87,1.13,1.27,.61,.81,1.27,1.58,1.84,2.42l1.77,2.48c.55,.86,1.13,1.69,1.65,2.58l.02,.04c.07,.12,.03,.28-.09,.35-.11,.07-.26,.04-.34-.07Z"/><path class="d" d="M53.29,36.97c.35,.56,.71,1.09,1.06,1.68,.17,.3,.32,.63,.35,1.02,.04,.39-.12,.82-.46,1.07-.67,.47-1.56,.29-2.08-.22-.53-.51-.75-1.19-.95-1.82l.36-.09c.07,.54,.14,1.12-.1,1.69-.12,.28-.35,.52-.65,.64-.3,.11-.62,.1-.9,0-.57-.18-1-.75-1.02-1.34-.04-.59,.19-1.15,.55-1.58l.11,.2c-.6,.06-1.17-.25-1.51-.71-.36-.45-.45-1.12-.17-1.65,.27-.52,.79-.9,1.38-.96,.29-.03,.61,.02,.86,.2,.24,.16,.48,.49,.36,.84-.02,.07-.1,.11-.17,.09-.02,0-.04-.02-.05-.03-.56-.49-.43-1.29-.19-1.83,.26-.57,.63-1.1,1.23-1.41,.3-.15,.7-.16,1.01,.02,.31,.17,.51,.47,.62,.78,.22,.66,.01,1.3-.15,1.87h0c-.03,.11-.13,.17-.23,.14-.09-.03-.15-.12-.13-.22,.08-.38,.47-.41,.68-.32,.28,.13,.34,.38,.37,.57,.03,.39,.03,.7,.01,1.07-.03,.7-.32,1.55-1.11,1.87-.11,.05-.24,0-.28-.12-.04-.1,0-.21,.09-.27l.04-.02c.5-.29,.67-.91,.65-1.51,0-.28-.04-.71-.08-.93,0-.09-.12-.11,.03,0,.04,.02,.06,.03,.12,.02,.05,0,.23-.11,.24-.28l-1.12-.24c.16-.57,.23-1.09,.09-1.37-.06-.15-.19-.27-.26-.28-.07-.01-.1,0-.21,.05-.23,.12-.56,.58-.71,.96-.08,.2-.12,.4-.11,.52,.01,.14,.04,.13,.06,.16l-1.38,.38c-.04,.09-.01,.24,0,.27,.02,.05,.02,.03,0,.02-.05-.03-.06-.03-.19-.02-.2,.02-.46,.22-.55,.42-.08,.2-.05,.33,.09,.54,.14,.21,.4,.32,.55,.31h.03c.5-.06,.95,.29,1,.79,.03,.27-.06,.52-.22,.71-.21,.24-.34,.59-.32,.83,.02,.26,.1,.34,.31,.45,.23,.04,.2,.06,.3-.08,.09-.17,.14-.64,.07-1.13v-.06c-.07-.43,.23-.82,.66-.88,.39-.05,.76,.2,.86,.58,.16,.61,.34,1.14,.64,1.46,.22,.3,.75,.37,.98,.23,.11-.05,.2-.16,.21-.36,.01-.2-.07-.48-.2-.74l-.9-1.73v-.03c-.08-.13-.03-.28,.1-.35,.12-.06,.27-.02,.34,.09Z"/><path class="d" d="M48.14,37.7c-.07-.52-.87-.9-1.36-.57-.49,.32-.48,1.24,.04,1.56l-.21,.23c-.24-.35-.71-.54-1.13-.46-.42,.08-.8,.43-.9,.86-.11,.43,.07,.91,.39,1.23,.32,.33,.77,.52,1.22,.59,.92,.15,1.93-.02,2.65-.6,.72-.55,.98-1.66,.53-2.39-.06-.1-.03-.23,.07-.3,.09-.06,.21-.04,.28,.04l.03,.04c.75,.89,.54,2.41-.4,3.24-.92,.85-2.16,1.13-3.34,.97-.61-.08-1.27-.34-1.8-.88-.51-.52-.85-1.31-.65-2.18,.21-.84,.86-1.49,1.72-1.64,.85-.13,1.67,.21,2.13,.91l.04,.07c.24,.37,.14,.87-.24,1.12-.28,.18-.64,.17-.9-.01-.58-.4-.8-1.04-.78-1.58,.01-.54,.26-1.13,.78-1.47,.53-.32,1.13-.24,1.55-.01,.43,.21,.77,.65,.79,1.13v.07c0,.14-.1,.26-.25,.27-.13,0-.25-.09-.26-.22Z"/><path class="d" d="M52.94,35.86c-.13-.8-.12-1.66,.22-2.43,.34-.76,1-1.42,1.87-1.55,.22-.03,.44-.02,.66,.07,.22,.08,.41,.29,.48,.5,.14,.41,.19,.81,.17,1.22-.03,.81-.34,1.61-.88,2.22-.05,.05-.13,.06-.18,.01-.05-.04-.06-.12-.02-.17,.32-.43,.72-.82,1.22-1.06,.49-.24,1.11-.28,1.62-.03,.5,.22,.94,.8,.76,1.4-.14,.54-.72,1.06-1.35,.84-.07-.02-.1-.1-.08-.16,.02-.05,.07-.08,.12-.09,.4,0,.72,.29,.86,.61,.16,.32,.19,.7,.09,1.04-.17,.68-.76,1.23-1.46,1.35-.68,.13-1.39-.04-1.97-.39-.58-.35-1.05-.84-1.48-1.33-.08-.09-.07-.23,.02-.3,.08-.07,.2-.07,.28,0l.03,.03c.49,.42,.96,.83,1.48,1.07,.51,.24,1.05,.28,1.48,.16,.43-.12,.67-.45,.73-.81,.09-.31-.29-.56-.08-.43l.31-1.65s-.11,0-.06-.04c.04-.03,.09-.11,.09-.15,0,0-.02-.1-.24-.2-.23-.08-.42-.09-.71,.03-.28,.12-.59,.39-.85,.73l-1.4-1.12c.38-.41,.62-.99,.65-1.58,.02-.27,0-.63-.05-.82-.03-.06,.06,.03,.06,0,0-.02-.09-.05-.19-.04-.47,0-1,.42-1.31,.96-.33,.56-.41,1.3-.39,2.05v.05c0,.14-.11,.26-.25,.26-.13,0-.24-.09-.26-.22Z"/><path class="d" d="M56.07,34.81c.7-.94,.8-2.23,1.02-3.45,.12-.62,.28-1.24,.6-1.81,.32-.56,.76-1.04,1.3-1.4,.12-.1,.41-.15,.56,.03,.13,.16,.16,.34,.18,.5,.02,.32,.03,.64,0,.95-.06,.63-.24,1.25-.51,1.83-.55,1.14-1.47,2.13-2.64,2.71-.11,.05-.23,0-.28-.1-.04-.09-.02-.2,.05-.26l.05-.04c.47-.39,.9-.78,1.21-1.26,.34-.44,.61-.93,.78-1.44,.16-.52,.3-1.02,.31-1.54,.01-.26,.01-.51-.01-.76,.01-.07-.07-.1,.08,.11,.09,.12,.32,.24,.51,.22,.19,0,.25-.06,.25-.06-.33,.21-.7,.6-.93,1-.26,.4-.4,.92-.58,1.48-.17,.57-.29,1.19-.49,1.82-.24,.62-.53,1.28-1.03,1.75l-.05,.05c-.1,.1-.27,.09-.36-.01-.09-.09-.09-.23-.02-.33Z"/><path class="d" d="M55.96,34.76c1.32-1.54,2.62-3.09,3.91-4.66l1.94-2.35c.32-.39,.65-.79,1.05-1.13,.2-.17,.43-.31,.67-.41,.06-.02,.13-.06,.23-.06,.11,0,.2,.09,.24,.16,.08,.15,.09,.28,.1,.42,.02,.56-.28,1.04-.54,1.46-.26,.44-.55,.86-.85,1.27-.6,.83-1.26,1.6-1.98,2.33-.72,.72-1.5,1.39-2.32,2-.8,.59-1.68,1.29-2.83,1.29-.12,0-.21-.1-.21-.22,0-.11,.08-.2,.18-.21h.05c.92-.14,1.65-.78,2.39-1.45,.75-.64,1.46-1.32,2.1-2.06,.63-.75,1.27-1.47,1.82-2.27,.28-.4,.54-.8,.78-1.22,.26-.41,.39-.79,.36-.87v-.02s0,0,.05,.1c.03,.08,.29,.34,.6,.34,.27,0,.29-.06,.24-.03-.14,.05-.28,.14-.43,.25-.3,.23-.59,.58-.92,.97-.66,.77-1.29,1.57-1.99,2.3l-2.06,2.24c-.73,.72-1.42,1.46-2.18,2.15l-.04,.03c-.11,.1-.27,.09-.37-.02-.09-.1-.09-.24,0-.34Z"/><path class="d" d="M3.91,67.7c-.51,1.92-.97,3.85-1.6,5.73-.54,1.91-1.24,3.76-1.91,5.63-.04,.11-.16,.17-.27,.13-.09-.03-.15-.12-.14-.21v-.08c.05-.52,.16-1,.23-1.5l.32-1.44c.21-.96,.49-1.89,.76-2.83,.3-.93,.57-1.86,.93-2.77l.52-1.38c.22-.45,.38-.92,.64-1.37l.05-.09c.07-.12,.22-.17,.34-.1,.1,.06,.15,.18,.12,.28Z"/><path class="d" d="M2.36,69.81c.46-.59,1.05-1.13,1.77-1.4,.73-.25,1.5-.2,2.22-.03,.72,.15,1.44,.5,1.9,1.12,.44,.61,.65,1.46,.31,2.23-.04,.1-.16,.15-.26,.1-.07-.03-.12-.1-.12-.18v-.12c0-.35-.05-.63-.2-.88-.1-.25-.27-.47-.46-.62-.37-.29-.84-.52-1.4-.63-.56-.14-1.15-.16-1.64-.11-.26,.03-.52,.13-.79,.28-.3,.12-.57,.33-.89,.52l-.11,.07c-.12,.07-.27,.03-.34-.08-.05-.09-.04-.2,.02-.28Z"/><path class="d" d="M8.67,72.06c-.53,1.4-.99,2.81-1.6,4.16-.52,1.39-1.19,2.72-1.79,4.08-.05,.1-.17,.15-.27,.1-.08-.04-.13-.12-.12-.2v-.11c.04-.4,.15-.76,.2-1.14l.3-1.07c.19-.71,.46-1.38,.71-2.06,.29-.67,.55-1.34,.91-1.98l.52-.98c.22-.31,.39-.64,.64-.95l.08-.1c.09-.11,.24-.12,.35-.03,.08,.07,.11,.18,.07,.28Z"/><path class="d" d="M.85,78.63c.18,.95,1.04,1.71,2,1.95,.97,.16,2.07-.21,2.61-1.03,.06-.09,.18-.12,.27-.05,.07,.04,.1,.12,.08,.2l-.02,.14c-.06,.32-.24,.58-.42,.85-.22,.23-.47,.43-.76,.61-.57,.34-1.28,.44-1.97,.32-.68-.15-1.31-.5-1.72-1.02-.2-.26-.37-.54-.48-.84-.08-.32-.15-.63-.09-.95l.03-.16c.02-.13,.15-.21,.28-.19,.1,.02,.17,.1,.19,.19Z"/><path class="d" d="M15.71,69.19c-.42,.95-.71,1.95-1.07,2.93-.27,1-.61,1.98-.82,3.01-.02,.11-.12,.17-.23,.15-.08-.02-.13-.07-.15-.14l-.04-.14c-.08-.3-.07-.56-.1-.85l.04-.8c.03-.53,.16-1.04,.3-1.54,.17-.49,.34-.98,.61-1.44l.41-.69c.19-.21,.33-.44,.55-.64l.13-.11c.1-.09,.24-.08,.33,.02,.06,.07,.07,.17,.04,.25Z"/><path class="d" d="M15.04,69.26c.81-.43,1.6-1.01,2.57-1.1,.47-.07,.97,0,1.41,.19,.43,.21,.84,.56,1.03,1.07,.03,.09-.01,.2-.11,.23-.06,.02-.12,.01-.16-.02l-.15-.1c-.21-.14-.35-.24-.54-.27-.15-.06-.31-.09-.47-.1-.31,0-.61-.03-.86,.03-.31,.03-.63,.13-1.04,.21-.2,.04-.41,.1-.63,.16-.24,.02-.47,.1-.74,.11h-.19c-.13,0-.23-.09-.23-.22,0-.09,.05-.17,.12-.2Z"/><path class="d" d="M19.92,69.95c-.09,.92-.11,1.83-.27,2.72-.06,.91-.27,1.79-.4,2.7-.01,.1-.11,.17-.21,.16-.07,0-.12-.06-.15-.12l-.06-.15c-.1-.26-.12-.49-.18-.73l-.07-.68c-.05-.45,0-.87,.02-1.3,.06-.42,.11-.85,.25-1.27l.21-.65c.12-.22,.18-.44,.33-.67l.11-.16c.07-.1,.21-.13,.31-.06,.07,.05,.11,.13,.1,.21Z"/><path class="d" d="M13.72,75.2c.14,.45,.72,.71,1.28,.82,.57,.12,1.16,.19,1.75,.17,.58-.05,1.15-.21,1.64-.52,.49-.29,.88-.76,1.01-1.28,.03-.11,.14-.17,.25-.15,.08,.02,.14,.09,.15,.17v.12c.05,.37-.07,.72-.22,1.07-.19,.32-.44,.6-.72,.85-.57,.5-1.34,.72-2.03,.78-.71,.03-1.37-.05-1.99-.28-.32-.12-.66-.27-.98-.5-.29-.26-.59-.62-.61-1.03v-.14c0-.13,.1-.25,.23-.25,.11,0,.21,.07,.24,.17Z"/><path class="d" d="M29.2,61.27c.95-.17,1.93-.03,2.68,.54,.79,.5,1.26,1.37,1.43,2.3,.02,.1-.05,.2-.15,.21-.06,.01-.13-.01-.17-.06l-.12-.13c-.17-.19-.28-.36-.45-.5-.12-.15-.25-.28-.39-.39-.28-.22-.5-.42-.75-.57-.23-.18-.51-.3-.81-.47-.15-.09-.32-.15-.5-.21-.19-.1-.38-.13-.62-.22l-.2-.07c-.11-.04-.17-.17-.13-.28,.03-.07,.09-.12,.17-.14Z"/><path class="d" d="M29.23,61.93c-.46,.49-.84,1.02-1.33,1.46-.41,.51-.92,.93-1.37,1.41-.06,.07-.17,.07-.24,0-.04-.04-.06-.09-.05-.14l.02-.21c.03-.23,.1-.38,.14-.57l.21-.45c.13-.3,.33-.53,.51-.76,.21-.21,.41-.43,.7-.59l.42-.25c.18-.06,.32-.15,.54-.2l.25-.05c.11-.02,.22,.05,.24,.15,.01,.07,0,.13-.05,.18Z"/><path class="d" d="M26.34,65.02c-.15,.34-.12,.76,.02,1.15,.14,.39,.35,.77,.59,1.12,.27,.33,.59,.62,.96,.77,.37,.16,.81,.15,1.11-.07,.09-.06,.21-.04,.27,.04,.05,.06,.05,.15,0,.21l-.08,.13c-.16,.27-.45,.41-.74,.52-.3,.07-.62,.06-.93,0-.64-.13-1.1-.56-1.44-.96-.3-.42-.55-.85-.64-1.41-.04-.28-.06-.56-.03-.85,.08-.29,.17-.58,.38-.79l.13-.13c.09-.09,.24-.08,.33,0,.07,.07,.08,.17,.04,.25Z"/><path class="d" d="M29.25,67.98c.75-.61,1.4-1.32,2.1-1.98,.63-.72,1.32-1.39,1.9-2.16,.06-.08,.18-.1,.27-.04,.06,.04,.08,.12,.07,.18l-.03,.15c-.05,.29-.16,.51-.24,.76l-.35,.66c-.24,.44-.55,.8-.87,1.16-.34,.34-.68,.67-1.1,.93l-.63,.39c-.25,.09-.46,.22-.74,.29l-.18,.04c-.12,.03-.25-.05-.28-.17-.02-.09,.01-.18,.08-.23Z"/><path class="d" d="M35.56,73.29c.75-1.68,1.36-3.41,2.05-5.12,.6-1.74,1.27-3.45,1.8-5.21,.03-.11,.15-.17,.26-.14,.09,.03,.15,.11,.15,.2v.08c0,.49-.1,.94-.15,1.41l-.29,1.36c-.19,.91-.49,1.78-.79,2.65-.33,.86-.66,1.72-1.1,2.54l-.66,1.23c-.27,.39-.49,.8-.79,1.17l-.06,.07c-.09,.11-.25,.12-.35,.04-.09-.07-.12-.2-.07-.3Z"/><path class="d" d="M39.52,63.31c.64-.54,1.39-.94,2.19-1.12,.81-.18,1.67-.09,2.41,.27,.75,.33,1.39,.95,1.67,1.74,.27,.78,.25,1.69-.19,2.45-.06,.1-.18,.13-.28,.08-.07-.04-.11-.13-.1-.21l.02-.11c.06-.39,.08-.72,0-1.05-.04-.32-.15-.62-.31-.87-.3-.49-.71-.85-1.25-1.08-.53-.25-1.1-.33-1.75-.3-.32,.01-.66,.08-.99,.19-.36,.07-.69,.23-1.06,.38l-.11,.04c-.13,.05-.27-.01-.32-.14-.04-.1,0-.21,.07-.28Z"/><path class="d" d="M36.15,73.99c.34,.93,1.21,1.6,2.13,1.97,.95,.29,2.06,.32,2.91-.19,.09-.06,.21-.03,.27,.07,.04,.07,.04,.16,0,.22l-.08,.11c-.19,.26-.44,.42-.7,.6-.28,.13-.57,.23-.88,.31-.62,.15-1.26,.07-1.85-.12-.59-.22-1.15-.54-1.55-1.03-.2-.25-.37-.51-.51-.78-.1-.31-.2-.59-.2-.91v-.16c0-.13,.11-.23,.25-.23,.1,0,.19,.07,.22,.16Z"/><path class="d" d="M41.27,75.06c.81-1.61,1.65-3.18,2.46-4.76,.73-1.61,1.45-3.26,1.65-5.02,.01-.11,.12-.2,.23-.18,.1,.01,.17,.08,.18,.17v.09c.09,.47,.06,.94,.05,1.42-.06,.46-.14,.92-.24,1.38-.2,.92-.55,1.77-.93,2.6-.41,.81-.83,1.6-1.33,2.34l-.75,1.1c-.29,.35-.53,.72-.85,1.06l-.07,.08c-.09,.1-.25,.11-.35,.01-.08-.08-.1-.2-.05-.3Z"/><path class="d" d="M29.92,80.28c.81-1.17,1.93-2.12,3.29-2.5,.65-.24,1.51-.14,2.01,.43,.5,.54,.74,1.24,.87,1.94,.02,.11-.05,.21-.16,.23-.08,.02-.16-.02-.2-.09l-.07-.1c-.2-.3-.33-.59-.55-.81-.17-.24-.36-.44-.55-.54-.39-.19-.56-.19-1.05-.04-.49,.14-1.03,.42-1.55,.68-.27,.14-.52,.31-.77,.49-.28,.16-.52,.38-.82,.58l-.12,.08c-.11,.08-.26,.05-.34-.06-.06-.08-.05-.19,0-.27Z"/><path class="d" d="M30.56,80.78c-.19,1.33-.19,2.66-.23,4,.06,1.33,.09,2.67,.31,3.99,.02,.11-.06,.21-.17,.23-.09,.01-.17-.03-.21-.1l-.06-.1c-.19-.32-.28-.65-.43-.98l-.26-1c-.16-.67-.21-1.35-.24-2.03,0-.68,.02-1.36,.16-2.04l.22-1.01c.13-.33,.21-.67,.38-1l.06-.12c.06-.12,.21-.16,.33-.1,.09,.05,.14,.15,.13,.25Z"/><path class="d" d="M35.84,80.84c.15,1.19,.37,2.36,.45,3.54,.17,1.18,.19,2.37,.29,3.56,0,.11-.07,.21-.18,.21-.08,0-.15-.04-.19-.1l-.06-.12c-.16-.3-.23-.59-.35-.87l-.23-.86c-.16-.57-.23-1.14-.31-1.7-.05-.57-.11-1.14-.09-1.73l.03-.89c.05-.31,.06-.61,.14-.93l.04-.15c.03-.13,.17-.2,.29-.17,.1,.03,.16,.11,.17,.2Z"/><path class="d" d="M30.69,88.82c.35,.39,.85,.65,1.4,.74,.54,.1,1.11,.07,1.65-.07,1.06-.36,2-1.06,2.74-1.92,.07-.08,.2-.09,.28-.02,.06,.05,.08,.14,.06,.21l-.04,.13c-.1,.32-.27,.57-.42,.86-.19,.25-.39,.49-.61,.72-.45,.47-1.04,.81-1.7,1.03-.68,.19-1.41,.24-2.1,.01-.34-.12-.66-.27-.95-.47-.27-.24-.52-.49-.65-.82l-.05-.14c-.05-.12,.01-.26,.14-.31,.1-.04,.2,0,.27,.06Z"/><path class="d" d="M42.64,86.72c.88-1.56,1.58-3.21,2.3-4.84,.64-1.67,1.3-3.33,1.77-5.06,.03-.11,.15-.18,.26-.15,.09,.03,.15,.11,.15,.2v.09c0,.48-.07,.92-.11,1.39l-.27,1.34c-.19,.89-.5,1.74-.82,2.59-.35,.83-.72,1.66-1.2,2.44l-.73,1.16c-.29,.36-.54,.74-.88,1.08l-.07,.08c-.1,.1-.26,.1-.35,0-.08-.08-.1-.2-.04-.3Z"/><path class="d" d="M46.81,77.29c.31-.67,.99-.98,1.62-1.01,.64-.02,1.23,.22,1.75,.51,.53,.27,1.04,.67,1.36,1.21,.3,.54,.45,1.2,.26,1.85-.03,.1-.14,.16-.24,.13-.07-.02-.12-.08-.13-.15l-.03-.14c-.06-.29-.12-.52-.26-.72-.1-.2-.23-.38-.38-.52-.31-.27-.64-.52-1.06-.73-.42-.24-.84-.39-1.19-.49-.18-.05-.36-.06-.56-.02-.22,.01-.41,.1-.63,.25l-.16,.11c-.1,.07-.24,.05-.32-.06-.05-.07-.05-.15-.02-.23Z"/><path class="d" d="M51.45,80.3c-.82,1.42-1.45,2.92-2.12,4.42-.57,1.53-1.17,3.05-1.59,4.63-.03,.11-.14,.18-.25,.15-.09-.02-.15-.1-.15-.19v-.1c-.03-.44,.04-.85,.06-1.28l.23-1.23c.16-.82,.44-1.6,.73-2.38,.32-.76,.66-1.52,1.11-2.22l.68-1.05c.28-.33,.51-.67,.83-.97l.08-.08c.1-.09,.26-.09,.35,0,.08,.08,.09,.2,.04,.29Z"/><path class="d" d="M43.49,87.57c-.24,.29-.11,.86,.27,1.16,.37,.32,.86,.55,1.35,.7,.5,.11,1.03,.09,1.48-.12,.45-.2,.82-.61,.87-1.07,.01-.11,.11-.19,.22-.17,.08,.01,.15,.07,.17,.15l.03,.13c.08,.34-.02,.7-.17,1.03-.19,.31-.45,.57-.75,.77-.64,.43-1.44,.44-2.09,.3-.66-.19-1.2-.43-1.72-.99-.24-.28-.46-.66-.51-1.07-.01-.4,.08-.85,.41-1.08l.12-.09c.11-.08,.26-.05,.34,.05,.07,.09,.06,.22-.01,.3Z"/><path class="d" d="M51.39,69.41c-.65-.53-.96-1.32-1.01-2.09-.05-.78,.22-1.53,.62-2.16,.38-.65,.89-1.21,1.47-1.68,.59-.46,1.28-.84,2.07-.95,.11-.01,.21,.06,.23,.17,.01,.08-.03,.16-.1,.2l-.1,.06c-.32,.19-.61,.34-.85,.58-.26,.19-.49,.41-.69,.66-.41,.49-.84,.99-1.13,1.51-.32,.51-.49,1.01-.58,1.54-.04,.28-.03,.56,.04,.85,.03,.31,.15,.58,.32,.89l.07,.12c.06,.12,.02,.26-.1,.33-.09,.05-.19,.03-.27-.03Z"/><path class="d" d="M54.73,62.69c1.17,.47,2.11,1.21,3.06,1.92,.49,.32,1,.62,1.54,.84,.53,.23,1.11,.34,1.67,.27,.11-.01,.21,.07,.22,.18,.01,.08-.03,.16-.1,.2l-.11,.06c-.31,.17-.66,.21-1.01,.25-.35,0-.69-.05-1.02-.12-.67-.14-1.25-.47-1.77-.81-.5-.36-.96-.71-1.36-1.11-.2-.2-.41-.39-.62-.57-.19-.22-.42-.38-.64-.61l-.11-.12c-.09-.09-.09-.24,0-.33,.07-.07,.17-.08,.25-.05Z"/><path class="d" d="M52.26,69.39c1.24,.33,2.27,.99,3.25,1.68,1.02,.61,2.05,1.3,3.22,1.39,.11,0,.19,.1,.19,.22,0,.09-.06,.15-.14,.18l-.12,.03c-.34,.1-.68,.09-1.03,.09-.33-.05-.66-.12-.98-.21-.64-.18-1.19-.51-1.7-.81-.5-.34-.97-.65-1.4-1.01-.21-.18-.44-.34-.67-.5-.22-.2-.46-.33-.71-.54l-.13-.1c-.1-.08-.11-.23-.03-.33,.06-.07,.16-.1,.24-.08Z"/><path class="d" d="M58.75,72.44c.58-.12,1.12-.43,1.55-.88,.44-.43,.78-.96,1.04-1.53,.23-.58,.39-1.2,.38-1.81,.01-.6-.21-1.24-.72-1.47-.1-.05-.15-.17-.1-.27,.04-.08,.13-.13,.21-.12h.11c.41,.07,.76,.38,1.01,.72,.22,.36,.33,.76,.39,1.15,.12,.8-.07,1.53-.32,2.2-.29,.67-.7,1.32-1.31,1.78-.31,.23-.62,.43-.98,.57-.37,.1-.73,.2-1.11,.15l-.13-.02c-.13-.02-.23-.14-.21-.27,.01-.11,.09-.19,.19-.21Z"/><path class="d" d="M67.55,67.27c-.41-.28-.43-.77-.36-1.09,.05-.36,.22-.66,.39-.94,.35-.56,.84-1.03,1.4-1.36,1.09-.73,2.49-.92,3.79-.53,.1,.03,.16,.14,.13,.25-.02,.07-.09,.13-.16,.14l-.14,.02c-.34,.05-.62,.04-.91,.14-.27,.03-.54,.11-.79,.2-.49,.2-.96,.4-1.37,.67-.43,.25-.78,.59-1.14,.95-.1,.09-.16,.19-.25,.29-.07,.08-.12,.18-.17,.27-.12,.2-.2,.33-.16,.54l.05,.24c.02,.11-.05,.22-.16,.24-.06,.01-.11,0-.16-.03Z"/><path class="d" d="M72.88,63.27c.82,.87,1.74,1.64,2.6,2.46,.93,.75,1.8,1.56,2.78,2.26,.09,.06,.11,.19,.05,.28-.05,.07-.13,.09-.2,.08l-.13-.03c-.33-.07-.6-.22-.91-.32l-.81-.43c-.54-.29-1-.67-1.46-1.04-.44-.4-.88-.8-1.25-1.29l-.55-.73c-.15-.28-.33-.53-.45-.84l-.06-.14c-.05-.12,.01-.26,.14-.31,.09-.04,.2,0,.26,.06Z"/><path class="d" d="M68.16,67.37c.87,.91,1.83,1.71,2.75,2.56,.98,.78,1.9,1.63,2.92,2.36,.09,.06,.11,.19,.05,.28-.05,.07-.13,.1-.21,.08l-.12-.03c-.34-.08-.63-.23-.94-.34l-.84-.46c-.56-.31-1.05-.7-1.54-1.09-.47-.42-.93-.84-1.33-1.34l-.59-.76c-.16-.29-.36-.55-.49-.87l-.06-.13c-.05-.12,0-.26,.13-.32,.09-.04,.2-.01,.27,.06Z"/><path class="d" d="M73.3,71.73c1.16,.31,2.48-.1,3.38-.92,.43-.44,.76-.98,.96-1.56,.09-.28,.18-.61,.17-.88-.01-.29-.17-.55-.32-.52-.11,.02-.22-.05-.24-.16-.02-.11,.04-.21,.15-.24l.13-.04c.25-.07,.57,.11,.71,.31,.16,.2,.24,.41,.3,.63,.06,.49,.02,.79-.04,1.19-.13,.76-.54,1.45-1.08,2.01-.57,.54-1.28,.94-2.04,1.04-.38,.05-.75,.07-1.12,.02-.37-.09-.72-.17-1.04-.38l-.12-.08c-.11-.07-.14-.23-.07-.34,.06-.09,.17-.13,.26-.1Z"/><path class="d" d="M66.95,81.8c-.11-.78,.36-1.36,.8-1.79,.47-.42,1.02-.74,1.61-.94,1.16-.48,2.47-.45,3.68-.06,.1,.03,.16,.14,.13,.25-.02,.07-.09,.12-.16,.13l-.14,.02c-.33,.04-.61,.02-.9,.09-.27,.02-.54,.05-.8,.12-.51,.12-.99,.24-1.44,.43-.46,.16-.88,.4-1.32,.64-.21,.11-.4,.26-.55,.42-.19,.15-.3,.31-.41,.57l-.07,.17c-.05,.12-.18,.18-.3,.13-.08-.03-.13-.1-.14-.18Z"/><path class="d" d="M67.19,81.88c.45,1.39,1.11,2.69,1.77,3.99,.74,1.26,1.48,2.52,2.4,3.65,.07,.09,.06,.22-.03,.29-.07,.06-.16,.06-.24,.02l-.09-.06c-.34-.21-.61-.48-.91-.72l-.77-.83c-.51-.56-.9-1.2-1.28-1.84-.35-.66-.68-1.33-.89-2.06l-.3-1.09c-.05-.38-.14-.75-.14-1.15v-.13c0-.14,.11-.25,.25-.25,.11,0,.2,.07,.23,.17Z"/><path class="d" d="M73.3,79.24c.63,1.15,1.35,2.24,1.95,3.39,.69,1.11,1.27,2.27,1.95,3.39,.06,.1,.03,.22-.07,.28-.07,.04-.16,.04-.23-.01l-.1-.07c-.29-.22-.5-.48-.75-.71l-.63-.76c-.42-.5-.75-1.05-1.09-1.59-.31-.56-.63-1.11-.86-1.72l-.36-.91c-.08-.33-.2-.64-.26-.99l-.02-.14c-.02-.13,.07-.25,.2-.27,.1-.01,.2,.04,.25,.12Z"/><path class="d" d="M70.81,88.89c.38,.43,.96,.7,1.56,.77,.6,.08,1.23,0,1.8-.23,1.12-.53,2.02-1.5,2.54-2.62,.05-.1,.17-.14,.27-.1,.08,.04,.12,.12,.12,.2v.12c-.03,.36-.16,.68-.26,1.03-.15,.32-.32,.62-.53,.93-.41,.6-1.02,1.09-1.72,1.41-.74,.3-1.55,.41-2.32,.21-.38-.1-.75-.25-1.07-.46-.31-.25-.59-.51-.75-.87l-.05-.13c-.05-.12,0-.27,.13-.32,.1-.04,.21-.01,.28,.06Z"/><path class="d" d="M15.85,50.87c.07,1.6-.13,3.24-.78,4.71-.65,1.47-1.58,2.75-2.42,4.08-.84,1.33-1.72,2.65-2.75,3.85-1.02,1.17-2.22,2.33-2.49,3.83-.02,.12-.13,.19-.25,.17-.11-.02-.18-.11-.18-.21v-.05c0-.86,.4-1.67,.81-2.4,.45-.7,.97-1.33,1.42-1.94,.91-1.22,1.77-2.48,2.56-3.82,.87-1.3,1.76-2.61,2.43-3.88,.34-.64,.58-1.32,.75-2.04,.21-.72,.29-1.48,.39-2.26v-.06c.03-.14,.15-.24,.29-.22,.13,.02,.22,.12,.22,.24Z"/><path class="d" d="M18.17,58.16c-.04,.9-.15,1.8-.32,2.68-.18,.88-.45,1.72-.46,2.59,.02,.87,.31,1.71,.44,2.61,.11,.88,.08,1.9-.59,2.67-.07,.09-.2,.1-.29,.02-.07-.06-.09-.15-.06-.23l.04-.09c.16-.39,.22-.75,.18-1.13,0-.37-.07-.75-.18-1.12-.22-.76-.54-1.62-.59-2.71,0-1.09,.31-1.99,.57-2.77,.14-.4,.25-.81,.35-1.22,.15-.41,.23-.84,.38-1.27l.03-.1c.04-.13,.19-.2,.32-.16,.11,.04,.17,.14,.17,.25Z"/><path class="d" d="M62.93,56.6c.86,3.93,1.5,7.91,1.71,11.93,.12,1.99,.43,4.01,1.51,5.7,1.02,1.71,2.48,3.1,3.94,4.46,.09,.08,.09,.22,.01,.3-.07,.08-.2,.09-.28,.03l-.03-.02c-.83-.58-1.6-1.24-2.38-1.92-.74-.72-1.44-1.5-2.05-2.39-.62-.87-1.05-1.92-1.31-2.98-.26-1.05-.37-2.1-.46-3.11-.08-1.99-.3-3.95-.5-5.92-.09-.99-.21-1.98-.34-2.96l-.33-2.99v-.04c-.02-.14,.08-.27,.22-.29,.13-.01,.25,.07,.28,.2Z"/><path class="d" d="M66.48,56.09c-.3,.65-.38,1.41-.27,2.14,.1,.73,.36,1.45,.71,2.11,.38,.65,.86,1.23,1.37,1.8,.59,.56,.61,1.54,.96,2.05,.06,.1,.04,.23-.06,.29-.08,.05-.18,.05-.25-.01l-.06-.05c-.38-.3-.52-.77-.72-1.05-.15-.3-.31-.43-.58-.66-.57-.46-1.15-1.14-1.57-1.85-.41-.74-.73-1.59-.74-2.48,0-.44,.03-.88,.13-1.31,.14-.42,.3-.83,.59-1.16l.08-.09c.09-.1,.25-.12,.35-.03,.09,.07,.11,.19,.06,.29Z"/><path class="d" d="M44.05,49.29c-.76,1.34-.82,3.02-.45,4.54,.36,1.55,1.08,2.99,1.8,4.42,.73,1.42,1.58,2.83,2.98,3.62,1.38,.79,2.77,1.68,3.96,2.8,.09,.08,.09,.22,0,.3-.07,.08-.19,.09-.27,.03l-.04-.03c-.68-.44-1.32-.88-2.02-1.24-.67-.4-1.35-.7-2.12-1.1-.78-.37-1.52-1.05-2.05-1.74-.55-.7-.98-1.45-1.37-2.16-.68-1.45-1.48-2.96-1.79-4.68-.14-.86-.19-1.74-.07-2.61,.16-.86,.44-1.72,.98-2.4l.04-.04c.09-.11,.25-.13,.36-.04,.1,.08,.13,.22,.06,.33Z"/><path class="d" d="M43.69,49.53c-.35,1.46-.6,2.98-1.21,4.41-.59,1.42-1.41,2.74-2.41,3.89-.98,1.18-2.15,2.19-3.45,3-1.27,.85-2.92,1.16-3.86,2.24-.08,.09-.21,.1-.3,.02-.08-.07-.1-.18-.04-.27l.02-.04c.43-.74,1.2-1.17,1.85-1.58,.68-.36,1.27-.73,1.86-1.15,1.16-.85,2.25-1.77,3.12-2.9,.97-1.05,1.7-2.28,2.33-3.56,.34-.64,.58-1.31,.82-2.01,.26-.72,.47-1.46,.77-2.17l.02-.04c.06-.13,.21-.19,.34-.14,.12,.05,.18,.18,.15,.3Z"/><path class="d" d="M43.03,49.83c-.45,2.14-.76,4.32-.6,6.49,.12,1.08,.39,2.13,.81,3.14,.38,1.01,.85,2.06,.84,3.23,0,.12-.1,.21-.21,.21-.1,0-.18-.07-.2-.16l-.02-.08c-.14-.52-.29-1-.54-1.46-.21-.47-.46-.94-.71-1.43-.54-.98-.88-2.2-1.01-3.36-.1-1.17-.05-2.33,.17-3.44,.12-.56,.24-1.1,.38-1.64,.19-.53,.34-1.07,.58-1.58l.04-.08c.06-.13,.21-.18,.34-.12,.11,.05,.17,.17,.14,.28Z"/><path class="d" d="M43.03,48.97c-.02,1.32-.17,2.62-.42,3.91-.27,1.28-.65,2.54-1.1,3.76-.92,2.44-2.15,4.75-3.48,6.98-.65,1.12-1.32,2.23-2.01,3.33-.67,1.11-1.43,2.18-1.98,3.33-1.1,2.31-1.04,5.07-.08,7.41,.05,.11,0,.24-.12,.28-.1,.04-.22,0-.27-.1v-.02c-.66-1.17-.99-2.51-1.1-3.88-.06-1.37,.18-2.79,.73-4.09,.54-1.31,1.32-2.35,1.96-3.46,.67-1.1,1.33-2.21,1.96-3.32,.66-1.1,1.29-2.2,1.88-3.33,.58-1.13,1.08-2.29,1.59-3.45,.96-2.34,1.62-4.78,1.91-7.33v-.04c.02-.14,.15-.24,.29-.23,.13,.02,.23,.13,.23,.26Z"/><path class="d" d="M43.31,50.46c-.37,1.09-.41,2.29-.15,3.44,.25,1.15,.74,2.25,1.33,3.29,.58,1.04,1.33,1.98,1.99,3,.68,1.01,1.13,2.18,1.34,3.38,.23,1.19,.34,2.39,.47,3.59,.11,1.2,.15,2.43-.09,3.64-.12,.59-.29,1.18-.06,1.69,.21,.52,.68,.9,1.11,1.34,.97,.8,1.28,2.41,.51,3.51-.07,.1-.2,.12-.3,.05-.09-.06-.12-.18-.07-.27v-.03c.26-.49,.3-1.05,.19-1.54-.12-.51-.41-.85-.85-1.22-.4-.38-.98-.76-1.35-1.54-.38-.83-.13-1.67-.07-2.18,.13-1.08,.12-2.21-.01-3.37-.14-1.16-.28-2.39-.5-3.48-.19-1.12-.54-2.06-1.16-3.02-.59-.95-1.41-1.94-1.96-3.08-.58-1.12-1.06-2.32-1.28-3.59-.19-1.27-.11-2.62,.42-3.78v-.03c.07-.13,.23-.19,.36-.13,.12,.06,.18,.19,.14,.32Z"/></g></g></g></svg>