<?xml version="1.0" encoding="UTF-8"?><svg xmlns="http://www.w3.org/2000/svg" viewBox="0 0 68.96 94.01"><defs><style>.d{fill:#48494a;}</style></defs><g id="a"/><g id="b"><g id="c"><g><g><path class="d" d="M46.88,10.14c4.85-.09,14.62-.26,19.47-.3h.33l-.03,.33c-1.42,13.48-2.63,27.15-6.5,40.19-7.99,21.95-12.99-36.06-13.27-40.22,1.84,13.37,3.22,26.95,7.09,39.92,1.96,5.63,3.31,5.72,5.26-.01,3.82-12.97,5.13-26.56,6.83-39.94l.3,.33c-4.85-.04-14.62-.21-19.47-.3h0Z"/><path class="d" d="M57.64,54.85c.38,11.4,.44,22.89,.49,34.31v.57c.08,.81-.67,1.66-1.52,1.62-.85,.03-1.6-.81-1.53-1.62v-.57c.04-11.18,.12-23.12,.49-34.31,.38,11.38,.45,23.49,.49,34.88-.08,.61,.76,.86,1.03,.33,.1-.14,.05-.71,.06-.9,.04-11.41,.11-22.9,.49-34.31h0Z"/><path class="d" d="M57.63,88.21c2.93-.09,5.92,0,8.78,.79,.87,.28,1.91,.58,2.39,1.45,.44,1.45-1.5,2.08-2.56,2.43-4.78,1.31-9.82,1.34-14.72,.76-2-.33-4.01-.53-5.76-1.73-.21-.18-.45-.41-.56-.76-.28-1.02,.91-1.59,1.6-1.86,2.81-1.01,5.82-1.09,8.76-1.07-2.87,.28-5.83,.57-8.51,1.66-2.82,1.18,.33,2.04,1.75,2.39,2.82,.63,5.73,.77,8.62,.74,3.31-.07,6.79-.15,9.87-1.43,.39-.18,.78-.47,.82-.68,.1-.17-.24-.52-.61-.74-3.03-1.48-6.54-1.65-9.86-1.95h0Z"/><path class="d" d="M49.06,28c5.04-.68,10.08-.69,15.12,0-5.04,.69-10.08,.68-15.12,0h0Z"/><path class="d" d="M55.18,32.8c-.02,2.11-3.2,2.25-3.28,0,.08-2.26,3.26-2.11,3.28,0h0Zm0,0c-.07-1.6-2.28-1.46-2.28,0,0,1.47,2.21,1.6,2.28,0h0Z"/><path class="d" d="M57.4,37.75c.05,.82-1.21,.99-1.28,0,.07-.99,1.33-.82,1.28,0h0Zm0,0c.01-.23-.32-.31-.39-.14-.08,.17,.12,.22,.11,.14,0-.08-.19-.03-.11,.14,.07,.17,.4,.09,.39-.14,0,0,.01,.23,0,0Z"/><path class="d" d="M61.28,31.68c.08,.68-.98,.83-1.04,0,.06-.84,1.12-.68,1.04,0h0Zm0,0c0-.17-.26-.19-.27-.02-.01,.17,.24,.17,.23,.02,0-.15-.24-.15-.23,.02,0,.17,.28,.15,.27-.02,0,0,0,.17,0,0Z"/><path class="d" d="M58.25,42.62c.03,1.09-1.66,1.28-1.74,0,.06-1.25,1.76-1.12,1.74,0h0Zm0,0c-.04-.64-.88-.5-.74,0-.15,.5,.7,.64,.74,0h0Z"/><path class="d" d="M62.33,36.7c.02,1.18-1.77,1.31-1.83,0,.06-1.31,1.85-1.18,1.83,0h0Zm0,0c-.05-.69-.94-.56-.83,0-.12,.56,.78,.7,.83,0h0Z"/></g><g><path class="d" d="M28.97,0c4.6,1.56,13.85,4.7,18.43,6.3l.31,.11-.14,.3c-5.89,12.21-11.66,24.66-19.71,35.63C12.92,60.3,27.83,4.01,28.97,0c-2.8,13.21-6.08,26.46-6.83,39.96-.05,5.96,1.18,6.51,4.96,1.77,7.98-10.91,13.81-23.26,19.93-35.28l.17,.41c-4.55-1.68-13.69-5.14-18.23-6.87h0Z"/><path class="d" d="M23.97,45.71c-3.56,11.04-7.45,22.05-11.33,32.99-.2,.79-1.19,1.33-1.98,1.01l-.33-.47,.33,.47c-.54-.19-.94-.7-1-1.26-.07-.48,.17-.91,.31-1.32,3.82-10.51,7.93-21.72,12.06-32.12-3.43,10.65-7.4,21.91-11.14,32.45-.05,.17-.29,.71-.25,.87,.02,.2,.17,.37,.35,.44l.33,.47-.33-.47c.32,.1,.62-.05,.72-.41,3.97-10.91,7.97-21.87,12.26-32.66h0Z"/><path class="d" d="M12.69,77.1c2.79,.91,5.58,2,8,3.71,.72,.55,1.6,1.19,1.75,2.18-.08,1.52-2.12,1.45-3.23,1.42-4.94-.38-9.7-2.06-14.11-4.26-1.77-.99-3.59-1.85-4.84-3.58-.14-.25-.29-.53-.26-.91,.08-1.05,1.39-1.19,2.14-1.21,2.98,0,5.85,.94,8.61,1.95-2.8-.7-5.68-1.44-8.57-1.32-.68,.05-1.89,.23-1.26,1.08,2.57,2.74,6.49,4.07,9.95,5.38,3.14,1.06,6.44,2.15,9.77,1.99,.43-.04,.9-.18,1-.36,.16-.13-.06-.57-.33-.9-2.35-2.42-5.6-3.76-8.62-5.17h0Z"/><path class="d" d="M24.3,20.94c5.04-.11,10.02,.46,14.91,1.72-5.04,.11-10.02-.47-14.91-1.72h0Z"/><path class="d" d="M29.12,24.13c-.73,1.98-3.77,1.04-3.09-1.11,.84-2.1,3.79-.88,3.09,1.11h0Zm0,0c.48-1.53-1.65-2.15-2.15-.77-.5,1.38,1.54,2.26,2.15,.77h0Z"/><path class="d" d="M29.54,29.54c-.23,.79-1.47,.52-1.21-.43,.4-.91,1.54-.32,1.21,.43h0Zm0,0c.09-.22-.2-.4-.32-.26-.13,.13,.03,.25,.05,.17,.03-.08-.17-.09-.15,.1,0,.19,.35,.22,.42,0,0,0-.07,.22,0,0Z"/><path class="d" d="M35.23,25.14c-.16,.67-1.2,.45-.98-.35,.34-.77,1.29-.26,.98,.35h0Zm0,0c.07-.16-.18-.27-.25-.11-.07,.16,.17,.24,.21,.1,.06-.14-.18-.22-.22-.05-.05,.16,.21,.23,.26,.07,0,0-.05,.16,0,0Z"/><path class="d" d="M28.69,34.41c-.35,1.04-1.99,.65-1.63-.59,.5-1.19,2.04-.43,1.63,.59h0Zm0,0c.17-.61-.66-.77-.69-.25-.31,.42,.44,.84,.69,.25h0Z"/><path class="d" d="M34.53,30.21c-.38,1.12-2.11,.63-1.72-.62,.5-1.22,2.14-.49,1.72,.62h0Zm0,0c.19-.67-.7-.84-.78-.28-.3,.48,.5,.92,.78,.28h0Z"/></g><g><g><path class="d" d="M53.84,16.74c1.35-.28,2.54,.11,3.46,1.13-1.35,.28-2.54-.11-3.46-1.13h0Z"/><path class="d" d="M56.13,15.57c.28,1.35-.11,2.54-1.13,3.46-.28-1.35,.11-2.54,1.13-3.46h0Z"/></g><g><path class="d" d="M65.5,23.09c1.35-.28,2.54,.11,3.46,1.13-1.35,.28-2.54-.11-3.46-1.13h0Z"/><path class="d" d="M67.8,21.92c.28,1.35-.11,2.54-1.13,3.46-.28-1.35,.11-2.54,1.13-3.46h0Z"/></g><g><path class="d" d="M60.48,13.8c1.88-.1,3.58,.45,5.04,1.65-1.88,.11-3.58-.45-5.04-1.65h0Z"/><path class="d" d="M63.82,12.11c.1,1.88-.45,3.58-1.65,5.04-.11-1.88,.45-3.58,1.65-5.04h0Z"/></g><g><path class="d" d="M26.28,4.84c1.35-.28,2.54,.11,3.46,1.13-1.35,.28-2.54-.11-3.46-1.13h0Z"/><path class="d" d="M28.58,3.68c.28,1.35-.11,2.54-1.13,3.46-.28-1.35,.11-2.54,1.13-3.46h0Z"/></g><g><path class="d" d="M33.66,1.81c1.35-.28,2.54,.11,3.46,1.13-1.35,.28-2.54-.11-3.46-1.13h0Z"/><path class="d" d="M35.96,.65c.28,1.35-.11,2.54-1.13,3.46-.28-1.35,.11-2.54,1.13-3.46h0Z"/></g><g><path class="d" d="M30.51,8.77c1.88-.1,3.58,.45,5.04,1.65-1.88,.11-3.58-.45-5.04-1.65h0Z"/><path class="d" d="M33.85,7.08c.1,1.88-.45,3.58-1.65,5.04-.11-1.88,.45-3.58,1.65-5.04h0Z"/></g></g></g></g></g></svg>