<?xml version="1.0" encoding="UTF-8"?><svg xmlns="http://www.w3.org/2000/svg" viewBox="0 0 123 79.53"><defs><style>.d{fill:#48494a;}</style></defs><g id="a"/><g id="b"><g id="c"><g><g><path class="d" d="M75.27,44.42c.08,7.95-9.76,12.18-15.49,6.6-3.69-3.4-3.7-9.79,0-13.19,5.73-5.59,15.57-1.35,15.49,6.6h0Zm0,0c.06-7.72-9.63-11.58-14.88-5.99-3.19,3.21-3.2,8.77,0,11.97,5.25,5.6,14.95,1.74,14.89-5.99h0Z"/><path class="d" d="M105.72,43.58c.08,7.94-9.75,12.18-15.49,6.6-3.7-3.39-3.71-9.78-.02-13.19,5.9-5.67,15.4-1.31,15.51,6.58h0Zm0,0c-.08-7.7-9.55-11.62-14.89-5.97-3.18,3.21-3.18,8.77,.02,11.97,5.25,5.59,14.94,1.72,14.88-5.99h0Z"/><path class="d" d="M70.66,36.62c-.27-8.61-.32-21.08-.43-29.82,0-.21,.15-.39,.35-.42C79.18,4.75,96.5,1.55,105.12,0c.27-.05,.54,.17,.53,.45-.03,13.39-.17,26.79-.45,40.18-.28-13.39-.42-26.79-.45-40.18l.53,.45c-8.6,1.62-25.93,4.79-34.54,6.32l.35-.42c-.05,8.78-.22,21.17-.43,29.82h0Z"/><path class="d" d="M74.64,41.13c-.13-4.72-.24-9.44-.29-14.16-.05-4.72-.15-9.44-.15-14.16,0-.21,.15-.38,.34-.43,6.61-1.63,19.94-4.82,26.58-6.35,.24-.06,.48,.09,.53,.33,0,9.72-.18,19.44-.43,29.15-.26-9.68-.4-19.36-.44-29.05l.55,.43c-6.61,1.63-19.95,4.81-26.58,6.34l.34-.43c-.05,9.44-.18,18.88-.44,28.31h0Z"/></g><g><path class="d" d="M27.97,24.85c2.44,11.59,4.22,23.39,5.31,35.19-2.44-11.59-4.22-23.39-5.31-35.19h0Z"/><path class="d" d="M39.25,66.23c-2.37-12.29-4.62-24.59-6.8-36.91-.07-.32,.28-.61,.58-.48,3.16,1.54,4.91,4.8,6.65,7.69l-.51-.25,2.87-.41-.39,.53c-.86-7.4-5.98-12.51-13.68-11.53,3.38-.76,7.21-.14,9.93,2.12,2.8,2.25,4.14,5.82,4.68,9.27,.04,.26-.14,.5-.39,.53l-2.86,.45c-.2,.03-.4-.07-.5-.24-.81-1.42-1.67-2.85-2.65-4.16-.94-1.21-2.03-2.59-3.44-3.19l.58-.48c2.07,12.34,4.06,24.69,5.94,37.06h0Z"/><path class="d" d="M39.6,67.92c1.36,8.71-8.62,14.89-15.83,9.74-4.58-3.1-5.63-10.05-2.17-14.37,5.37-7.05,16.73-4.09,18,4.63h0Zm0,0c-1.26-8.49-12.41-11.11-17.31-4.12-2.99,4.05-2.07,10.18,1.99,13.16,6.74,5.24,16.63-.56,15.32-9.05h0Z"/></g><g><g><path class="d" d="M50.35,61.41c3.04,.28,5.9,1.2,8.51,2.78-3.05-.27-5.89-1.21-8.51-2.78h0Z"/><path class="d" d="M56,58.55c-.28,3.04-1.2,5.9-2.79,8.51,.27-3.05,1.21-5.89,2.79-8.51h0Z"/></g><g><path class="d" d="M6.19,44.05c3.04,.28,5.9,1.2,8.51,2.79-3.05-.27-5.89-1.21-8.51-2.79h0Z"/><path class="d" d="M11.84,41.19c-.28,3.04-1.2,5.9-2.78,8.51,.27-3.05,1.21-5.89,2.78-8.51h0Z"/></g><g><path class="d" d="M0,20.81c4.33,.7,8.47,2.04,12.37,4.05-4.33-.69-8.47-2.05-12.37-4.05H0Z"/><path class="d" d="M8.21,16.64c-.7,4.33-2.04,8.47-4.05,12.37,.69-4.33,2.05-8.47,4.05-12.37h0Z"/></g><g><path class="d" d="M110.33,64.83c3.04,.28,5.9,1.2,8.51,2.79-3.05-.27-5.89-1.21-8.51-2.79h0Z"/><path class="d" d="M115.98,61.97c-.28,3.04-1.2,5.9-2.78,8.51,.27-3.05,1.21-5.89,2.78-8.51h0Z"/></g><g><path class="d" d="M114.49,34.13c3.04,.28,5.9,1.2,8.51,2.79-3.05-.27-5.89-1.21-8.51-2.79h0Z"/><path class="d" d="M120.14,31.26c-.28,3.04-1.2,5.9-2.79,8.51,.27-3.05,1.21-5.89,2.79-8.51h0Z"/></g><g><path class="d" d="M48.42,22.83c4.33,.7,8.47,2.04,12.37,4.05-4.33-.69-8.47-2.05-12.37-4.05h0Z"/><path class="d" d="M56.64,18.67c-.7,4.33-2.04,8.47-4.05,12.37,.69-4.33,2.05-8.47,4.05-12.37h0Z"/></g></g></g></g></g></svg>