<?xml version="1.0" encoding="UTF-8"?><svg xmlns="http://www.w3.org/2000/svg" viewBox="0 0 99.23 77.57"><defs><style>.d{fill:#48494a;}</style></defs><g id="a"/><g id="b"><g id="c"><g><g><path class="d" d="M88.74,39.67c.19,14.84-9.3,29.05-23.02,34.68-24.72,10.44-52.23-7.85-52.25-34.68,.01-26.83,27.53-45.13,52.25-34.68,13.72,5.63,23.21,19.85,23.02,34.68h0Zm0,0c.11-14.77-9.37-28.98-23.14-34.39C41.33-4.66,14.38,13.44,14.47,39.67c-.09,26.24,26.86,44.34,51.13,34.39,13.77-5.41,23.25-19.62,23.14-34.39h0Z"/><path class="d" d="M74.83,39.67c0,20.95-25.39,31.59-40.37,16.9-9.34-8.97-9.35-24.83,0-33.8,14.98-14.7,40.38-4.04,40.37,16.9h0Zm0,0c-.12-20.74-25.19-30.99-39.77-16.29-8.85,8.59-8.85,24,0,32.59,14.57,14.7,39.65,4.44,39.77-16.3h0Z"/></g><g><path class="d" d="M8.83,23.66c.39,17.81,.44,35.61,.49,53.42,0,.27-.22,.49-.49,.49H4.16c-.27,0-.49-.22-.49-.49,.05-17.81,.11-35.62,.49-53.42,.39,17.81,.44,35.61,.49,53.42l-.49-.49h4.67l-.49,.49c.05-17.81,.11-35.62,.49-53.42h0Z"/><g><path class="d" d="M5.03,24.29C-1.61,22.43,0,11.6,.68,6.38c.37-2.16,.84-4.32,1.6-6.38-.18,1.08-.35,2.16-.47,3.24-.39,5.4-2.94,18.59,3.22,21.05h0Z"/><path class="d" d="M7.97,24.29c6.15-2.46,3.62-15.65,3.22-21.05-.12-1.08-.3-2.16-.47-3.24,.76,2.06,1.23,4.22,1.6,6.38,.68,5.22,2.28,16.05-4.35,17.91h0Z"/><path class="d" d="M5.1,0c-.18,5.22-.65,10.42-1.2,15.61-.03,.27-.27,.47-.55,.45-.25-.03-.43-.23-.45-.46-.18-2.59-.35-5.19-.45-7.79C2.37,5.51,2.25,2.27,2.28,0c.35,2.23,.71,5.48,.95,7.75,.28,2.59,.48,5.18,.68,7.77l-1-.02c.58-5.19,1.24-10.36,2.19-15.5h0Z"/><path class="d" d="M7.91,0c-.18,5.22-.65,10.42-1.2,15.61-.03,.27-.27,.47-.55,.45-.25-.03-.43-.23-.45-.46-.18-2.59-.35-5.19-.45-7.79C5.18,5.51,5.05,2.27,5.09,0c.35,2.23,.71,5.48,.95,7.75,.28,2.59,.48,5.18,.68,7.77l-1-.02c.58-5.19,1.24-10.36,2.19-15.5h0Z"/><path class="d" d="M10.72,0c-.18,5.22-.65,10.42-1.2,15.61-.03,.27-.27,.47-.55,.45-.25-.03-.43-.23-.45-.46-.18-2.59-.35-5.19-.45-7.79C7.99,5.51,7.86,2.27,7.89,0c.35,2.23,.71,5.48,.95,7.75,.28,2.59,.48,5.18,.68,7.77l-1-.02c.58-5.19,1.24-10.36,2.19-15.5h0Z"/></g></g><path class="d" d="M98.74,0c-2.03,3.73-4.24,7.31-5.3,11.43-1.11,4.05-1.33,8.32-.74,12.46-.03-.13,2.12,8.98,2.11,8.95,0,.03,0,.05,0,.08,.13,14.72,.1,29.45,.15,44.17l-.5-.5h4.26l-.49,.5c0-24.83,.36-52.14,.49-77.08h0Zm0,0c.13,25.01,.49,52.13,.49,77.08,0,.27-.22,.49-.49,.49h-4.26c-.27,0-.5-.22-.5-.49,.06-14.59,0-29.8,.16-44.1l-1.99-9c-.27-2.12-.36-4.27-.18-6.39,.35-4.23,1.57-8.39,3.62-12.1l3.16-5.49h0Z"/></g></g></g></svg>